AddisMustafa-Regular.ufo
<glyph name="exclam" format="2">
  <advance width="303"/>
  <unicode hex="0021"/>
  <note>
exclam
</note>
  <outline>
    <contour>
      <point x="152" y="191" type="curve"/>
      <point x="164" y="191" type="line"/>
      <point x="169.333" y="331"/>
      <point x="182" y="421.833"/>
      <point x="194" y="478.5" type="curve" smooth="yes"/>
      <point x="202.687" y="519.523"/>
      <point x="217.354" y="557.063"/>
      <point x="219" y="562" type="curve"/>
      <point x="219" y="615.573"/>
      <point x="186.099" y="712"/>
      <point x="157" y="712" type="curve" smooth="yes"/>
      <point x="125.912" y="712"/>
      <point x="93" y="616.188"/>
      <point x="93" y="562" type="curve"/>
      <point x="96.605" y="556.593"/>
      <point x="110.388" y="518.351"/>
      <point x="120" y="477.5" type="curve" smooth="yes"/>
      <point x="133.333" y="420.833"/>
      <point x="146.667" y="329.667"/>
    </contour>
    <contour>
      <point x="157" y="0" type="curve" smooth="yes"/>
      <point x="191.667" y="0"/>
      <point x="216" y="20.333"/>
      <point x="216" y="55" type="curve" smooth="yes"/>
      <point x="216" y="89.667"/>
      <point x="191.667" y="118"/>
      <point x="157" y="118" type="curve" smooth="yes"/>
      <point x="122.333" y="118"/>
      <point x="97" y="91.667"/>
      <point x="97" y="57" type="curve" smooth="yes"/>
      <point x="97" y="22.333"/>
      <point x="122.333" y="0"/>
    </contour>
  </outline>
</glyph>
<glyph name="comma" format="2">
  <advance width="243"/>
  <unicode hex="002C"/>
  <note>
comma
</note>
  <outline>
    <contour>
      <point x="117" y="-140" type="line"/>
      <point x="162.696" y="-107.744"/>
      <point x="206" y="-59.497"/>
      <point x="206" y="0" type="curve" smooth="yes"/>
      <point x="206" y="54.82"/>
      <point x="169.42" y="110"/>
      <point x="115" y="110" type="curve" smooth="yes"/>
      <point x="80.333" y="110"/>
      <point x="51" y="88.667"/>
      <point x="51" y="50" type="curve" smooth="yes"/>
      <point x="51" y="19.333"/>
      <point x="71" y="0"/>
      <point x="99" y="0" type="curve" smooth="yes"/>
      <point x="129.667" y="0"/>
      <point x="146.333" y="16.333"/>
      <point x="149" y="43" type="curve"/>
      <point x="163.667" y="40.333"/>
      <point x="174" y="13.333"/>
      <point x="174" y="-8" type="curve" smooth="yes"/>
      <point x="174" y="-62.667"/>
      <point x="148.667" y="-98.333"/>
      <point x="110" y="-133" type="curve"/>
    </contour>
  </outline>
</glyph>
<glyph name="period" format="2">
  <advance width="243"/>
  <unicode hex="002E"/>
  <note>
period
</note>
  <outline>
    <contour>
      <point x="124" y="-1" type="curve" smooth="yes"/>
      <point x="158.667" y="-1"/>
      <point x="182" y="19.333"/>
      <point x="182" y="54" type="curve" smooth="yes"/>
      <point x="182" y="88.667"/>
      <point x="158.667" y="117"/>
      <point x="124" y="117" type="curve" smooth="yes"/>
      <point x="89.333" y="117"/>
      <point x="64" y="90.667"/>
      <point x="64" y="56" type="curve" smooth="yes"/>
      <point x="64" y="21.333"/>
      <point x="89.333" y="-1"/>
    </contour>
  </outline>
</glyph>
<glyph name="five" format="2">
  <advance width="393"/>
  <unicode hex="0035"/>
  <note>
five
</note>
  <outline>
    <contour>
      <point x="138" y="-1" type="curve" smooth="yes"/>
      <point x="252" y="-1"/>
      <point x="373" y="107"/>
      <point x="373" y="244" type="curve" smooth="yes"/>
      <point x="373" y="361"/>
      <point x="292" y="446"/>
      <point x="155" y="446" type="curve" smooth="yes"/>
      <point x="128" y="446"/>
      <point x="110" y="444"/>
      <point x="86" y="440" type="curve"/>
      <point x="103" y="626" type="line"/>
      <point x="342" y="626" type="line"/>
      <point x="361" y="689"/>
      <point x="376" y="736"/>
      <point x="385" y="760" type="curve"/>
      <point x="373" y="764" type="line"/>
      <point x="361" y="736"/>
      <point x="353" y="722"/>
      <point x="309" y="722" type="curve" smooth="yes"/>
      <point x="96" y="722" type="line"/>
      <point x="52" y="291" type="line"/>
      <point x="62" y="289" type="line"/>
      <point x="78" y="336"/>
      <point x="105" y="357"/>
      <point x="162" y="357" type="curve" smooth="yes"/>
      <point x="232" y="357"/>
      <point x="292" y="307"/>
      <point x="292" y="202" type="curve" smooth="yes"/>
      <point x="292" y="114"/>
      <point x="254" y="22"/>
      <point x="167" y="22" type="curve" smooth="yes"/>
      <point x="86" y="22"/>
      <point x="101" y="121"/>
      <point x="36" y="121" type="curve" smooth="yes"/>
      <point x="15" y="121"/>
      <point x="0" y="103"/>
      <point x="0" y="82" type="curve" smooth="yes"/>
      <point x="0" y="22"/>
      <point x="72" y="-1"/>
    </contour>
  </outline>
</glyph>
<glyph name="less" format="2">
  <advance width="667"/>
  <unicode hex="003C"/>
  <note>
less
</note>
  <outline>
    <contour>
      <point x="606" y="0" type="line"/>
      <point x="606" y="61" type="line"/>
      <point x="175" y="273" type="line"/>
      <point x="606" y="490" type="line"/>
      <point x="606" y="545" type="line"/>
      <point x="61" y="273" type="line"/>
    </contour>
  </outline>
</glyph>
<glyph name="greater" format="2">
  <advance width="667"/>
  <unicode hex="003E"/>
  <note>
greater
</note>
  <outline>
    <contour>
      <point x="61" y="0" type="line"/>
      <point x="606" y="273" type="line"/>
      <point x="61" y="545" type="line"/>
      <point x="61" y="484" type="line"/>
      <point x="492" y="273" type="line"/>
      <point x="61" y="56" type="line"/>
    </contour>
  </outline>
</glyph>
<glyph name="question" format="2">
  <advance width="383"/>
  <unicode hex="003F"/>
  <note>
question
</note>
  <outline>
    <contour>
      <point x="111" y="167" type="line"/>
      <point x="129" y="167" type="line"/>
      <point x="129" y="248" type="line"/>
      <point x="209" y="264"/>
      <point x="251.333" y="275.667"/>
      <point x="278" y="301" type="curve" smooth="yes"/>
      <point x="304.376" y="324.738"/>
      <point x="311" y="403.912"/>
      <point x="311" y="447" type="curve" smooth="yes"/>
      <point x="311" y="505.734"/>
      <point x="303.869" y="591.339"/>
      <point x="257" y="633" type="curve"/>
      <point x="222.333" y="666.333"/>
      <point x="187" y="674"/>
      <point x="127" y="674" type="curve"/>
      <point x="127" y="723" type="line"/>
      <point x="110" y="723" type="line"/>
      <point x="110" y="567" type="line"/>
      <point x="132.667" y="569.667"/>
      <point x="156.667" y="571"/>
      <point x="166" y="571" type="curve" smooth="yes"/>
      <point x="233.997" y="571"/>
      <point x="291" y="551.428"/>
      <point x="291" y="470" type="curve" smooth="yes"/>
      <point x="291" y="407.486"/>
      <point x="268.556" y="380.967"/>
      <point x="212" y="364" type="curve" smooth="yes"/>
      <point x="196" y="358.667"/>
      <point x="179.5" y="354.5"/>
      <point x="162.5" y="351.5" type="curve" smooth="yes"/>
      <point x="145.5" y="348.5"/>
      <point x="128.333" y="345.333"/>
      <point x="111" y="342" type="curve"/>
    </contour>
    <contour>
      <point x="133" y="0" type="curve" smooth="yes"/>
      <point x="167.667" y="0"/>
      <point x="192" y="20.333"/>
      <point x="192" y="55" type="curve" smooth="yes"/>
      <point x="192" y="89.667"/>
      <point x="167.667" y="118"/>
      <point x="133" y="118" type="curve" smooth="yes"/>
      <point x="98.333" y="118"/>
      <point x="73" y="91.667"/>
      <point x="73" y="57" type="curve" smooth="yes"/>
      <point x="73" y="22.333"/>
      <point x="98.333" y="0"/>
    </contour>
  </outline>
</glyph>
<glyph name="O" format="2">
  <advance width="808"/>
  <unicode hex="004F"/>
  <note>
O
</note>
  <anchor x="417" y="725" name="top"/>
  <outline>
    <contour>
      <point x="402" y="-5" type="curve" smooth="yes"/>
      <point x="504.667" y="-5"/>
      <point x="598.833" y="32.333"/>
      <point x="667.5" y="99" type="curve" smooth="yes"/>
      <point x="736.167" y="165.667"/>
      <point x="779" y="258.333"/>
      <point x="779" y="365" type="curve" smooth="yes"/>
      <point x="779" y="461"/>
      <point x="744.667" y="552.167"/>
      <point x="682" y="619.5" type="curve" smooth="yes"/>
      <point x="619.333" y="686.833"/>
      <point x="528.333" y="730"/>
      <point x="415" y="730" type="curve" smooth="yes"/>
      <point x="311" y="730"/>
      <point x="213.5" y="694.833"/>
      <point x="143.5" y="631.5" type="curve" smooth="yes"/>
      <point x="73.5" y="568.167"/>
      <point x="29" y="475.667"/>
      <point x="29" y="361" type="curve" smooth="yes"/>
      <point x="29" y="253"/>
      <point x="71" y="161.167"/>
      <point x="139" y="96.5" type="curve" smooth="yes"/>
      <point x="207" y="31.833"/>
      <point x="300.667" y="-5"/>
    </contour>
    <contour>
      <point x="406" y="10" type="curve" smooth="yes"/>
      <point x="322" y="10"/>
      <point x="258.5" y="52"/>
      <point x="216.5" y="116" type="curve" smooth="yes"/>
      <point x="174.5" y="180"/>
      <point x="153" y="267.333"/>
      <point x="153" y="358" type="curve" smooth="yes"/>
      <point x="153" y="444.667"/>
      <point x="171.833" y="533.333"/>
      <point x="212.5" y="600" type="curve" smooth="yes"/>
      <point x="253.167" y="666.667"/>
      <point x="316.333" y="713"/>
      <point x="403" y="713" type="curve" smooth="yes"/>
      <point x="569.104" y="713"/>
      <point x="655" y="532.116"/>
      <point x="655" y="364" type="curve" smooth="yes"/>
      <point x="655" y="280"/>
      <point x="634.333" y="191.833"/>
      <point x="593" y="124.5" type="curve" smooth="yes"/>
      <point x="551.667" y="57.167"/>
      <point x="490" y="10"/>
    </contour>
  </outline>
</glyph>
<glyph name="R" format="2">
  <advance width="762"/>
  <unicode hex="0052"/>
  <note>
R
</note>
  <outline>
    <contour>
      <point x="41" y="0" type="line"/>
      <point x="361" y="0" type="line"/>
      <point x="361" y="10" type="line"/>
      <point x="306.333" y="12.667"/>
      <point x="276.667" y="34.667"/>
      <point x="266" y="52" type="curve"/>
      <point x="252.667" y="72"/>
      <point x="254" y="102"/>
      <point x="253" y="145" type="curve"/>
      <point x="252" y="339" type="line"/>
      <point x="272" y="338"/>
      <point x="280" y="339"/>
      <point x="304" y="334" type="curve" smooth="yes"/>
      <point x="338.667" y="327.333"/>
      <point x="370.333" y="296.667"/>
      <point x="397" y="266" type="curve" smooth="yes"/>
      <point x="429" y="228.667"/>
      <point x="451" y="200.333"/>
      <point x="471" y="171" type="curve" smooth="yes"/>
      <point x="485.645" y="149.521"/>
      <point x="515.034" y="103.949"/>
      <point x="534" y="76" type="curve" smooth="yes"/>
      <point x="559.681" y="39.084"/>
      <point x="569.226" y="22.774"/>
      <point x="592" y="0" type="curve"/>
      <point x="797" y="0" type="line"/>
      <point x="797" y="10" type="line"/>
      <point x="734.333" y="19.333"/>
      <point x="692.333" y="47.667"/>
      <point x="643" y="117" type="curve" smooth="yes"/>
      <point x="611" y="162.333"/>
      <point x="566.667" y="226.333"/>
      <point x="532" y="277" type="curve" smooth="yes"/>
      <point x="512" y="305"/>
      <point x="490.667" y="329"/>
      <point x="468" y="341" type="curve"/>
      <point x="468" y="344" type="line"/>
      <point x="558.048" y="374.016"/>
      <point x="633" y="430.251"/>
      <point x="633" y="528" type="curve" smooth="yes"/>
      <point x="633" y="608"/>
      <point x="593.667" y="659.333"/>
      <point x="535" y="690" type="curve" smooth="yes"/>
      <point x="477.667" y="720.667"/>
      <point x="410.333" y="721"/>
      <point x="321" y="721" type="curve" smooth="yes"/>
      <point x="303" y="721"/>
      <point x="279.667" y="721"/>
      <point x="251" y="721" type="curve" smooth="yes"/>
      <point x="222.333" y="721"/>
      <point x="193.667" y="720.833"/>
      <point x="165" y="720.5" type="curve" smooth="yes"/>
      <point x="136.333" y="720.167"/>
      <point x="110.667" y="720"/>
      <point x="88" y="720" type="curve" smooth="yes"/>
      <point x="66" y="720"/>
      <point x="52.333" y="720"/>
      <point x="47" y="720" type="curve"/>
      <point x="47" y="710" type="line"/>
      <point x="83" y="704.667"/>
      <point x="106" y="700.333"/>
      <point x="126" y="679" type="curve" smooth="yes"/>
      <point x="142.103" y="662.897"/>
      <point x="143" y="596.302"/>
      <point x="143" y="558" type="curve" smooth="yes"/>
      <point x="143" y="345"/>
      <point x="141" y="181.48"/>
      <point x="141" y="156" type="curve" smooth="yes"/>
      <point x="141" y="121.138"/>
      <point x="137.405" y="60.886"/>
      <point x="125" y="46" type="curve" smooth="yes"/>
      <point x="107.667" y="24.667"/>
      <point x="74.333" y="15.333"/>
      <point x="41" y="10" type="curve"/>
    </contour>
    <contour>
      <point x="252" y="352" type="curve"/>
      <point x="252" y="357.333"/>
      <point x="252" y="370"/>
      <point x="252" y="390" type="curve" smooth="yes"/>
      <point x="252" y="444"/>
      <point x="252" y="572"/>
      <point x="254" y="626" type="curve" smooth="yes"/>
      <point x="255.238" y="654.477"/>
      <point x="255.365" y="675.187"/>
      <point x="260" y="703" type="curve"/>
      <point x="269.333" y="704.333"/>
      <point x="286" y="706"/>
      <point x="314" y="706" type="curve" smooth="yes"/>
      <point x="352.667" y="706"/>
      <point x="388" y="699.667"/>
      <point x="420" y="685" type="curve" smooth="yes"/>
      <point x="484" y="654.333"/>
      <point x="518" y="600.667"/>
      <point x="518" y="534" type="curve" smooth="yes"/>
      <point x="518" y="459.664"/>
      <point x="478.433" y="395.448"/>
      <point x="397" y="370" type="curve" smooth="yes"/>
      <point x="353" y="355.333"/>
      <point x="306.667" y="352"/>
    </contour>
  </outline>
</glyph>
<glyph name="bracketright" format="2">
  <advance width="286"/>
  <unicode hex="005D"/>
  <note>
bracketright
</note>
  <outline>
    <contour>
      <point x="10" y="-106" type="line"/>
      <point x="237" y="-106" type="line"/>
      <point x="237" y="720" type="line"/>
      <point x="10" y="720" type="line"/>
      <point x="10" y="696" type="line"/>
      <point x="209" y="696" type="line"/>
      <point x="209" y="-82" type="line"/>
      <point x="10" y="-82" type="line"/>
    </contour>
  </outline>
</glyph>
<glyph name="m" format="2">
  <advance width="794"/>
  <unicode hex="006D"/>
  <note>
m
</note>
  <outline>
    <contour>
      <point x="29" y="0" type="line"/>
      <point x="223" y="0" type="line"/>
      <point x="223" y="10" type="line"/>
      <point x="195.43" y="15.514"/>
      <point x="173.254" y="9.728"/>
      <point x="168" y="36" type="curve"/>
      <point x="168" y="364" type="line"/>
      <point x="202.667" y="401.333"/>
      <point x="225" y="420"/>
      <point x="269" y="420" type="curve" smooth="yes"/>
      <point x="338.333" y="420"/>
      <point x="362" y="372.667"/>
      <point x="362" y="294" type="curve" smooth="yes"/>
      <point x="362" y="38" type="line" smooth="yes"/>
      <point x="362" y="16.667"/>
      <point x="339" y="13.667"/>
      <point x="303" y="11" type="curve"/>
      <point x="303" y="0" type="line"/>
      <point x="500" y="0" type="line"/>
      <point x="500" y="9" type="line"/>
      <point x="475.016" y="11.776"/>
      <point x="446" y="15.601"/>
      <point x="446" y="35" type="curve" smooth="yes"/>
      <point x="446" y="358" type="line"/>
      <point x="478" y="394"/>
      <point x="503" y="420"/>
      <point x="547" y="420" type="curve" smooth="yes"/>
      <point x="616.333" y="420"/>
      <point x="640" y="370.333"/>
      <point x="640" y="293" type="curve" smooth="yes"/>
      <point x="640" y="38" type="line" smooth="yes"/>
      <point x="640" y="16.667"/>
      <point x="621" y="13.667"/>
      <point x="585" y="11" type="curve"/>
      <point x="585" y="0" type="line"/>
      <point x="782" y="0" type="line"/>
      <point x="782" y="9" type="line"/>
      <point x="758.54" y="11.607"/>
      <point x="724" y="15.983"/>
      <point x="724" y="35" type="curve" smooth="yes"/>
      <point x="724" y="333" type="line" smooth="yes"/>
      <point x="724" y="421"/>
      <point x="684.333" y="483"/>
      <point x="607" y="483" type="curve" smooth="yes"/>
      <point x="537.086" y="483"/>
      <point x="472.756" y="420.513"/>
      <point x="446" y="367" type="curve"/>
      <point x="443" y="367" type="line"/>
      <point x="433.667" y="437.667"/>
      <point x="393" y="483"/>
      <point x="329" y="483" type="curve" smooth="yes"/>
      <point x="259.974" y="483"/>
      <point x="197.148" y="424.667"/>
      <point x="169" y="374" type="curve"/>
      <point x="167" y="375" type="line"/>
      <point x="167" y="483" type="line"/>
      <point x="161" y="483" type="line"/>
      <point x="30" y="436" type="line"/>
      <point x="30" y="428" type="line"/>
      <point x="46" y="421.333"/>
      <point x="63" y="411.667"/>
      <point x="75" y="405" type="curve"/>
      <point x="84.333" y="398.333"/>
      <point x="85" y="394.667"/>
      <point x="85" y="384" type="curve" smooth="yes"/>
      <point x="85" y="42" type="line" smooth="yes"/>
      <point x="85" y="20.667"/>
      <point x="59.667" y="12.667"/>
      <point x="29" y="10" type="curve"/>
    </contour>
  </outline>
</glyph>
<glyph name="p" format="2">
  <advance width="534"/>
  <unicode hex="0070"/>
  <note>
p
</note>
  <outline>
    <contour>
      <point x="0" y="-230" type="line"/>
      <point x="246" y="-230" type="line"/>
      <point x="246" y="-219" type="line"/>
      <point x="215.916" y="-215.992"/>
      <point x="164" y="-216"/>
      <point x="164" y="-193" type="curve" smooth="yes"/>
      <point x="164" y="-149"/>
      <point x="164" y="-33"/>
      <point x="164" y="11" type="curve"/>
      <point x="187.333" y="5.667"/>
      <point x="210" y="4"/>
      <point x="234" y="5" type="curve" smooth="yes"/>
      <point x="403" y="9"/>
      <point x="514" y="110.734"/>
      <point x="514" y="265" type="curve" smooth="yes"/>
      <point x="514" y="377.682"/>
      <point x="451.838" y="483"/>
      <point x="331" y="483" type="curve" smooth="yes"/>
      <point x="257.334" y="483"/>
      <point x="203" y="423"/>
      <point x="164" y="371" type="curve"/>
      <point x="162" y="371" type="line"/>
      <point x="162" y="483" type="line"/>
      <point x="156" y="483" type="line"/>
      <point x="9" y="425" type="line"/>
      <point x="9" y="419" type="line"/>
      <point x="25" y="412.333"/>
      <point x="48" y="401"/>
      <point x="61" y="394" type="curve" smooth="yes"/>
      <point x="70" y="389"/>
      <point x="80" y="387"/>
      <point x="80" y="369" type="curve" smooth="yes"/>
      <point x="80" y="-185" type="line" smooth="yes"/>
      <point x="80" y="-206.311"/>
      <point x="28.17" y="-216.183"/>
      <point x="0" y="-219" type="curve"/>
    </contour>
    <contour>
      <point x="274" y="24" type="curve" smooth="yes"/>
      <point x="190.841" y="24"/>
      <point x="168" y="83"/>
      <point x="161" y="150" type="curve" smooth="yes"/>
      <point x="161" y="177"/>
      <point x="161" y="314"/>
      <point x="161" y="342" type="curve" smooth="yes"/>
      <point x="161" y="366"/>
      <point x="214.33" y="418"/>
      <point x="274" y="418" type="curve" smooth="yes"/>
      <point x="375.045" y="418"/>
      <point x="424" y="337.781"/>
      <point x="424" y="236" type="curve" smooth="yes"/>
      <point x="424" y="122.565"/>
      <point x="357.804" y="24"/>
    </contour>
  </outline>
</glyph>
<glyph name="w" format="2">
  <advance width="739"/>
  <unicode hex="0077"/>
  <note>
w
</note>
  <outline>
    <contour>
      <point x="223" y="-2" type="curve" smooth="yes"/>
      <point x="227" y="-2"/>
      <point x="231" y="0"/>
      <point x="233" y="4" type="curve" smooth="yes"/>
      <point x="240" y="18"/>
      <point x="245" y="33"/>
      <point x="250" y="45" type="curve" smooth="yes"/>
      <point x="366" y="339" type="line"/>
      <point x="386.22" y="280.363"/>
      <point x="461.667" y="57"/>
      <point x="479" y="5" type="curve" smooth="yes"/>
      <point x="480.333" y="1"/>
      <point x="481.333" y="-2"/>
      <point x="488" y="-2" type="curve" smooth="yes"/>
      <point x="491.333" y="-2"/>
      <point x="495" y="0"/>
      <point x="497" y="4" type="curve" smooth="yes"/>
      <point x="513" y="33"/>
      <point x="596" y="229"/>
      <point x="609.5" y="260" type="curve" smooth="yes"/>
      <point x="628.877" y="305.398"/>
      <point x="658.058" y="371.468"/>
      <point x="672" y="404" type="curve" smooth="yes"/>
      <point x="694.292" y="456.015"/>
      <point x="722.696" y="458.475"/>
      <point x="765" y="462" type="curve"/>
      <point x="765" y="473" type="line"/>
      <point x="582" y="473" type="line"/>
      <point x="582" y="462" type="line"/>
      <point x="613.007" y="458.555"/>
      <point x="645" y="458.058"/>
      <point x="645" y="423" type="curve" smooth="yes"/>
      <point x="645" y="402.844"/>
      <point x="615.805" y="323.404"/>
      <point x="596.5" y="275.5" type="curve" smooth="yes"/>
      <point x="577.681" y="228.801"/>
      <point x="538.952" y="134.395"/>
      <point x="530" y="115" type="curve"/>
      <point x="515.029" y="154.924"/>
      <point x="479.892" y="251.092"/>
      <point x="462.5" y="301" type="curve" smooth="yes"/>
      <point x="449.31" y="338.85"/>
      <point x="422" y="415.708"/>
      <point x="422" y="430" type="curve" smooth="yes"/>
      <point x="422" y="455.558"/>
      <point x="467.655" y="458.707"/>
      <point x="494" y="462" type="curve"/>
      <point x="494" y="473" type="line"/>
      <point x="266" y="473" type="line"/>
      <point x="266" y="462" type="line"/>
      <point x="332" y="458"/>
      <point x="334" y="426"/>
      <point x="356" y="364" type="curve"/>
      <point x="326.929" y="283.496"/>
      <point x="279.805" y="159.512"/>
      <point x="260" y="110" type="curve"/>
      <point x="237.727" y="163.923"/>
      <point x="195" y="257"/>
      <point x="171" y="315" type="curve" smooth="yes"/>
      <point x="149" y="368"/>
      <point x="129" y="413"/>
      <point x="126" y="443" type="curve" smooth="yes"/>
      <point x="124" y="459"/>
      <point x="173.032" y="459.147"/>
      <point x="193" y="462" type="curve"/>
      <point x="193" y="473" type="line"/>
      <point x="-32" y="473" type="line"/>
      <point x="-32" y="462" type="line"/>
      <point x="-8" y="461"/>
      <point x="20" y="455"/>
      <point x="30" y="441" type="curve" smooth="yes"/>
      <point x="42" y="424"/>
      <point x="51" y="399.667"/>
      <point x="59" y="381" type="curve" smooth="yes"/>
      <point x="115" y="246.333"/>
      <point x="162" y="132"/>
      <point x="214" y="5" type="curve" smooth="yes"/>
      <point x="216" y="0"/>
      <point x="219.667" y="-2"/>
    </contour>
  </outline>
</glyph>
<glyph name="z" format="2">
  <advance width="433"/>
  <unicode hex="007A"/>
  <note>
z
</note>
  <outline>
    <contour>
      <point x="415" y="-3" type="curve"/>
      <point x="424" y="-3" type="line"/>
      <point x="437" y="149" type="line"/>
      <point x="427" y="150" type="line"/>
      <point x="402.362" y="73.007"/>
      <point x="374.611" y="19"/>
      <point x="274" y="19" type="curve" smooth="yes"/>
      <point x="123" y="19" type="line"/>
      <point x="405" y="463" type="line"/>
      <point x="405" y="472" type="line"/>
      <point x="376" y="472"/>
      <point x="350.5" y="471.833"/>
      <point x="327.5" y="471.5" type="curve" smooth="yes"/>
      <point x="304.5" y="471.167"/>
      <point x="135" y="471"/>
      <point x="103" y="471" type="curve" smooth="yes"/>
      <point x="63.552" y="471"/>
      <point x="52.354" y="476.468"/>
      <point x="44" y="489" type="curve"/>
      <point x="35" y="488" type="line"/>
      <point x="17" y="350" type="line"/>
      <point x="27" y="348" type="line"/>
      <point x="54.898" y="428.904"/>
      <point x="70.763" y="453"/>
      <point x="165" y="453" type="curve" smooth="yes"/>
      <point x="300" y="453" type="line"/>
      <point x="21" y="8" type="line"/>
      <point x="21" y="1" type="line"/>
      <point x="51" y="1"/>
      <point x="83" y="1"/>
      <point x="107" y="1" type="curve" smooth="yes"/>
      <point x="131.667" y="1"/>
      <point x="155.833" y="1.167"/>
      <point x="179.5" y="1.5" type="curve" smooth="yes"/>
      <point x="203.167" y="1.833"/>
      <point x="227.667" y="2"/>
      <point x="253" y="2" type="curve" smooth="yes"/>
      <point x="278.333" y="2"/>
      <point x="307.333" y="2"/>
      <point x="340" y="2" type="curve" smooth="yes"/>
      <point x="348" y="2"/>
      <point x="356" y="2"/>
      <point x="364" y="2" type="curve" smooth="yes"/>
      <point x="376.57" y="2"/>
      <point x="412.157" y="1.264"/>
    </contour>
  </outline>
</glyph>
<glyph name="braceleft" format="2">
  <advance width="286"/>
  <unicode hex="007B"/>
  <note>
braceleft
</note>
  <outline>
    <contour>
      <point x="180" y="-120" type="curve" smooth="yes"/>
      <point x="192" y="-120"/>
      <point x="201" y="-112.667"/>
      <point x="201" y="-102" type="curve" smooth="yes"/>
      <point x="201" y="-95.333"/>
      <point x="199.333" y="-88.667"/>
      <point x="196" y="-82" type="curve"/>
      <point x="185.333" y="-82"/>
      <point x="174" y="-82"/>
      <point x="162" y="-82" type="curve" smooth="yes"/>
      <point x="124.814" y="-82"/>
      <point x="96" y="-69.705"/>
      <point x="96" y="-25" type="curve" smooth="yes"/>
      <point x="96" y="55.348"/>
      <point x="205" y="81.086"/>
      <point x="205" y="179" type="curve" smooth="yes"/>
      <point x="205" y="242.674"/>
      <point x="150.912" y="284.022"/>
      <point x="87" y="300" type="curve"/>
      <point x="87" y="302" type="line"/>
      <point x="153.667" y="319.333"/>
      <point x="205" y="360.333"/>
      <point x="205" y="423" type="curve" smooth="yes"/>
      <point x="205" y="523.431"/>
      <point x="96" y="544.886"/>
      <point x="96" y="629" type="curve" smooth="yes"/>
      <point x="96" y="691.367"/>
      <point x="146.575" y="686"/>
      <point x="196" y="686" type="curve"/>
      <point x="199.333" y="692.667"/>
      <point x="201" y="699.333"/>
      <point x="201" y="706" type="curve" smooth="yes"/>
      <point x="201" y="716.667"/>
      <point x="192" y="724"/>
      <point x="180" y="724" type="curve" smooth="yes"/>
      <point x="140.632" y="724"/>
      <point x="66" y="667.382"/>
      <point x="66" y="612" type="curve" smooth="yes"/>
      <point x="66" y="523.594"/>
      <point x="166" y="508.084"/>
      <point x="166" y="422" type="curve" smooth="yes"/>
      <point x="166" y="351.246"/>
      <point x="98.247" y="307"/>
      <point x="39" y="307" type="curve"/>
      <point x="39" y="295" type="line"/>
      <point x="96.247" y="295"/>
      <point x="166" y="249.389"/>
      <point x="166" y="180" type="curve" smooth="yes"/>
      <point x="166" y="96.412"/>
      <point x="68" y="77.097"/>
      <point x="68" y="-8" type="curve" smooth="yes"/>
      <point x="68" y="-63.159"/>
      <point x="140.293" y="-120"/>
    </contour>
  </outline>
</glyph>
<glyph name="dieresis" format="2">
  <unicode hex="00A8"/>
  <note>
dieresis
</note>
  <anchor x="0" y="482" name="_top"/>
  <outline>
    <contour>
      <point x="74" y="554" type="curve" smooth="yes"/>
      <point x="99" y="554"/>
      <point x="120" y="575"/>
      <point x="120" y="600" type="curve" smooth="yes"/>
      <point x="120" y="625"/>
      <point x="99" y="646"/>
      <point x="74" y="646" type="curve" smooth="yes"/>
      <point x="49" y="646"/>
      <point x="28" y="625"/>
      <point x="28" y="600" type="curve" smooth="yes"/>
      <point x="28" y="575"/>
      <point x="49" y="554"/>
    </contour>
    <contour>
      <point x="-93" y="554" type="curve" smooth="yes"/>
      <point x="-68" y="554"/>
      <point x="-47" y="575"/>
      <point x="-47" y="600" type="curve" smooth="yes"/>
      <point x="-47" y="625"/>
      <point x="-68" y="646"/>
      <point x="-93" y="646" type="curve" smooth="yes"/>
      <point x="-118" y="646"/>
      <point x="-139" y="625"/>
      <point x="-139" y="600" type="curve" smooth="yes"/>
      <point x="-139" y="575"/>
      <point x="-118" y="554"/>
    </contour>
  </outline>
</glyph>
<glyph name="acute" format="2">
  <unicode hex="00B4"/>
  <note>
acute
</note>
  <anchor x="0" y="482" name="_top"/>
  <outline>
    <contour>
      <point x="6" y="514" type="line"/>
      <point x="146" y="667" type="line"/>
      <point x="146" y="672" type="line"/>
      <point x="138" y="683"/>
      <point x="129" y="696"/>
      <point x="100" y="696" type="curve"/>
      <point x="-4" y="520" type="line"/>
    </contour>
  </outline>
</glyph>
<glyph name="mu" format="2">
  <advance width="630"/>
  <unicode hex="00B5"/>
  <note>
mu
</note>
  <outline>
    <contour>
      <point x="41" y="-246" type="curve" smooth="yes"/>
      <point x="58.333" y="-246"/>
      <point x="76" y="-228.667"/>
      <point x="76" y="-194" type="curve" smooth="yes"/>
      <point x="76" y="-176.301"/>
      <point x="61.907" y="-145.163"/>
      <point x="59" y="-119" type="curve"/>
      <point x="63.164" y="-77.36"/>
      <point x="80.256" y="63.279"/>
      <point x="119" y="159" type="curve"/>
      <point x="128" y="159" type="line"/>
      <point x="125.333" y="144.333"/>
      <point x="124" y="132"/>
      <point x="124" y="120" type="curve" smooth="yes"/>
      <point x="124" y="38.667"/>
      <point x="160" y="-4"/>
      <point x="216" y="-4" type="curve" smooth="yes"/>
      <point x="298.667" y="-4"/>
      <point x="369.333" y="56.333"/>
      <point x="408" y="151" type="curve"/>
      <point x="411" y="151" type="line"/>
      <point x="408.333" y="140.333"/>
      <point x="406" y="119"/>
      <point x="406" y="107" type="curve" smooth="yes"/>
      <point x="406" y="42.687"/>
      <point x="422.688" y="-3"/>
      <point x="481" y="-3" type="curve" smooth="yes"/>
      <point x="509" y="-3"/>
      <point x="536" y="4.333"/>
      <point x="560" y="35" type="curve" smooth="yes"/>
      <point x="585.333" y="67"/>
      <point x="598" y="112"/>
      <point x="598" y="184" type="curve"/>
      <point x="588" y="184" type="line"/>
      <point x="573.333" y="105.333"/>
      <point x="542" y="76"/>
      <point x="490" y="76" type="curve" smooth="yes"/>
      <point x="459.333" y="76"/>
      <point x="426" y="101.333"/>
      <point x="426" y="164" type="curve" smooth="yes"/>
      <point x="426" y="172.367"/>
      <point x="439.684" y="201.272"/>
      <point x="451.5" y="228.5" type="curve" smooth="yes"/>
      <point x="466.833" y="263.833"/>
      <point x="487" y="313"/>
      <point x="507" y="373" type="curve" smooth="yes"/>
      <point x="520.062" y="416.541"/>
      <point x="541.434" y="482"/>
      <point x="484" y="482" type="curve" smooth="yes"/>
      <point x="435.225" y="482"/>
      <point x="426.184" y="427.524"/>
      <point x="416" y="380" type="curve" smooth="yes"/>
      <point x="411.166" y="359.055"/>
      <point x="394.609" y="267.827"/>
      <point x="392" y="260" type="curve"/>
      <point x="372.458" y="193"/>
      <point x="306.552" y="79"/>
      <point x="234" y="79" type="curve" smooth="yes"/>
      <point x="187.333" y="79"/>
      <point x="150" y="108"/>
      <point x="150" y="160" type="curve" smooth="yes"/>
      <point x="150" y="174"/>
      <point x="153.333" y="190.333"/>
      <point x="160" y="209" type="curve" smooth="yes"/>
      <point x="168.667" y="235.667"/>
      <point x="178.333" y="260.5"/>
      <point x="189" y="283.5" type="curve" smooth="yes"/>
      <point x="199.667" y="306.5"/>
      <point x="209.667" y="333.333"/>
      <point x="219" y="364" type="curve" smooth="yes"/>
      <point x="235.549" y="413.648"/>
      <point x="254.364" y="483"/>
      <point x="200" y="483" type="curve" smooth="yes"/>
      <point x="148.354" y="483"/>
      <point x="139.85" y="419.533"/>
      <point x="130" y="367" type="curve"/>
      <point x="126.422" y="340.759"/>
      <point x="111.178" y="212.533"/>
      <point x="108" y="203" type="curve"/>
      <point x="105.275" y="186.651"/>
      <point x="55.484" y="35.196"/>
      <point x="43" y="-6" type="curve" smooth="yes"/>
      <point x="16.333" y="-99.333"/>
      <point x="1" y="-161.667"/>
      <point x="1" y="-203" type="curve" smooth="yes"/>
      <point x="1" y="-233.667"/>
      <point x="19.667" y="-246"/>
    </contour>
  </outline>
</glyph>
<glyph name="oslash" format="2">
  <advance width="511"/>
  <unicode hex="00F8"/>
  <note>
oslash
</note>
  <outline>
    <contour>
      <point x="55" y="-51" type="line"/>
      <point x="119" y="40" type="line"/>
      <point x="163" y="9.333"/>
      <point x="212.667" y="-3"/>
      <point x="258" y="-3" type="curve" smooth="yes"/>
      <point x="384.916" y="-3"/>
      <point x="492" y="108.553"/>
      <point x="492" y="245" type="curve" smooth="yes"/>
      <point x="492" y="331.667"/>
      <point x="455.667" y="394.333"/>
      <point x="405" y="433" type="curve"/>
      <point x="464" y="514" type="line"/>
      <point x="449" y="524" type="line"/>
      <point x="392" y="442" type="line"/>
      <point x="352" y="468.667"/>
      <point x="304" y="483"/>
      <point x="260" y="483" type="curve" smooth="yes"/>
      <point x="120.557" y="483"/>
      <point x="19" y="371.962"/>
      <point x="19" y="245" type="curve" smooth="yes"/>
      <point x="19" y="153"/>
      <point x="56.333" y="90.333"/>
      <point x="107" y="49" type="curve"/>
      <point x="40" y="-40" type="line"/>
    </contour>
    <contour>
      <point x="259" y="11" type="curve" smooth="yes"/>
      <point x="208.333" y="11"/>
      <point x="172" y="36.333"/>
      <point x="148" y="75" type="curve"/>
      <point x="369" y="388" type="line"/>
      <point x="390.333" y="344"/>
      <point x="400" y="291.333"/>
      <point x="400" y="246" type="curve" smooth="yes"/>
      <point x="400" y="146.608"/>
      <point x="358.938" y="11"/>
    </contour>
    <contour>
      <point x="140" y="90" type="line"/>
      <point x="120.667" y="132"/>
      <point x="111" y="181.667"/>
      <point x="111" y="239" type="curve" smooth="yes"/>
      <point x="111" y="347.651"/>
      <point x="164.213" y="467"/>
      <point x="253" y="467" type="curve" smooth="yes"/>
      <point x="303.667" y="467"/>
      <point x="337.333" y="440.333"/>
      <point x="360" y="403" type="curve"/>
    </contour>
  </outline>
</glyph>
<glyph name="dotlessi" format="2">
  <advance width="254"/>
  <unicode hex="0131"/>
  <note>
dotlessi
</note>
  <anchor x="110" y="481" name="top"/>
  <outline>
    <contour>
      <point x="18" y="0" type="line"/>
      <point x="233" y="0" type="line"/>
      <point x="233" y="10" type="line"/>
      <point x="206.178" y="15.364"/>
      <point x="174.247" y="9.763"/>
      <point x="169" y="36" type="curve"/>
      <point x="169" y="483" type="line"/>
      <point x="163" y="483" type="line"/>
      <point x="28" y="439" type="line"/>
      <point x="28" y="432" type="line"/>
      <point x="45.333" y="425.333"/>
      <point x="64" y="416.667"/>
      <point x="76" y="410" type="curve"/>
      <point x="86.667" y="403.333"/>
      <point x="86" y="399.667"/>
      <point x="86" y="389" type="curve" smooth="yes"/>
      <point x="86" y="42" type="line" smooth="yes"/>
      <point x="86" y="16.974"/>
      <point x="47.53" y="12.461"/>
      <point x="18" y="10" type="curve"/>
    </contour>
  </outline>
</glyph>
<glyph name="Scaron" format="2">
  <advance width="605"/>
  <unicode hex="0160"/>
  <note>
Scaron
</note>
  <outline>
    <contour>
      <point x="297" y="-7" type="curve" smooth="yes"/>
      <point x="445.258" y="-7"/>
      <point x="558" y="63.98"/>
      <point x="558" y="197" type="curve" smooth="yes"/>
      <point x="558" y="291.667"/>
      <point x="505.667" y="354.667"/>
      <point x="415" y="388" type="curve" smooth="yes"/>
      <point x="374.766" y="402.823"/>
      <point x="311.282" y="422.287"/>
      <point x="272" y="438" type="curve" smooth="yes"/>
      <point x="204" y="463.333"/>
      <point x="157" y="503.333"/>
      <point x="157" y="574" type="curve" smooth="yes"/>
      <point x="157" y="664.037"/>
      <point x="220.816" y="715"/>
      <point x="307" y="715" type="curve" smooth="yes"/>
      <point x="407.148" y="715"/>
      <point x="476.825" y="625.232"/>
      <point x="510" y="534" type="curve"/>
      <point x="521" y="534" type="line"/>
      <point x="521" y="719" type="line"/>
      <point x="510" y="719" type="line"/>
      <point x="499.333" y="703"/>
      <point x="484" y="683"/>
      <point x="480" y="683" type="curve" smooth="yes"/>
      <point x="478.243" y="683"/>
      <point x="457.334" y="698.292"/>
      <point x="437.5" y="707" type="curve" smooth="yes"/>
      <point x="410.167" y="719"/>
      <point x="368" y="731"/>
      <point x="308" y="731" type="curve" smooth="yes"/>
      <point x="175.916" y="731"/>
      <point x="68" y="661.393"/>
      <point x="68" y="522" type="curve" smooth="yes"/>
      <point x="68" y="438.938"/>
      <point x="128.973" y="368.318"/>
      <point x="200" y="341" type="curve" smooth="yes"/>
      <point x="218.421" y="333.792"/>
      <point x="328.443" y="295.959"/>
      <point x="347" y="289" type="curve" smooth="yes"/>
      <point x="412.891" y="264.291"/>
      <point x="462" y="230.664"/>
      <point x="462" y="157" type="curve" smooth="yes"/>
      <point x="462" y="65"/>
      <point x="394.667" y="7"/>
      <point x="296" y="7" type="curve" smooth="yes"/>
      <point x="244.134" y="7"/>
      <point x="191.424" y="32.503"/>
      <point x="161.5" y="60" type="curve" smooth="yes"/>
      <point x="127.422" y="91.315"/>
      <point x="89.058" y="151.827"/>
      <point x="73" y="200" type="curve"/>
      <point x="63" y="200" type="line"/>
      <point x="66" y="1" type="line"/>
      <point x="75" y="1" type="line"/>
      <point x="85.667" y="15.667"/>
      <point x="102" y="36"/>
      <point x="106" y="36" type="curve" smooth="yes"/>
      <point x="110.52" y="36"/>
      <point x="131.647" y="22.131"/>
      <point x="155" y="13.5" type="curve" smooth="yes"/>
      <point x="185.667" y="2.167"/>
      <point x="231.667" y="-7"/>
    </contour>
    <contour>
      <point x="313" y="764" type="line"/>
      <point x="328" y="764" type="line"/>
      <point x="434" y="927" type="line"/>
      <point x="421" y="934" type="line"/>
      <point x="321" y="830" type="line"/>
      <point x="220" y="934" type="line"/>
      <point x="207" y="927" type="line"/>
    </contour>
  </outline>
</glyph>
<glyph name="breve" format="2">
  <advance width="500"/>
  <unicode hex="02D8"/>
  <note>
breve
</note>
  <outline>
    <contour>
      <point x="248" y="534" type="curve" smooth="yes"/>
      <point x="282.667" y="534"/>
      <point x="312.667" y="550.667"/>
      <point x="330" y="572" type="curve" smooth="yes"/>
      <point x="352.667" y="598.667"/>
      <point x="358" y="638.333"/>
      <point x="358" y="673" type="curve" smooth="yes"/>
      <point x="358" y="684" type="line"/>
      <point x="345" y="684" type="line"/>
      <point x="341" y="617.333"/>
      <point x="304" y="585"/>
      <point x="248" y="585" type="curve" smooth="yes"/>
      <point x="193.333" y="585"/>
      <point x="155" y="617.333"/>
      <point x="151" y="684" type="curve"/>
      <point x="138" y="684" type="line"/>
      <point x="138" y="673" type="line" smooth="yes"/>
      <point x="138" y="638.333"/>
      <point x="143.333" y="598.667"/>
      <point x="166" y="572" type="curve" smooth="yes"/>
      <point x="183.333" y="550.667"/>
      <point x="213.333" y="534"/>
    </contour>
  </outline>
</glyph>
<glyph name="ringcmb" format="2">
  <unicode hex="030A"/>
  <note>
ringcmb
</note>
  <outline>
    <contour>
      <point x="-248" y="520" type="curve" smooth="yes"/>
      <point x="-205.333" y="520"/>
      <point x="-174" y="550.667"/>
      <point x="-174" y="592" type="curve" smooth="yes"/>
      <point x="-174" y="634.667"/>
      <point x="-205.333" y="664"/>
      <point x="-248" y="664" type="curve" smooth="yes"/>
      <point x="-289.333" y="664"/>
      <point x="-322" y="633.333"/>
      <point x="-322" y="592" type="curve" smooth="yes"/>
      <point x="-322" y="549.333"/>
      <point x="-292" y="520"/>
    </contour>
    <contour>
      <point x="-248" y="540" type="curve" smooth="yes"/>
      <point x="-277.333" y="540"/>
      <point x="-295" y="562.667"/>
      <point x="-295" y="592" type="curve" smooth="yes"/>
      <point x="-295" y="622.667"/>
      <point x="-276" y="644"/>
      <point x="-248" y="644" type="curve" smooth="yes"/>
      <point x="-218.667" y="644"/>
      <point x="-201" y="621.333"/>
      <point x="-201" y="592" type="curve" smooth="yes"/>
      <point x="-201" y="562.667"/>
      <point x="-218.667" y="540"/>
    </contour>
  </outline>
</glyph>
<glyph name="hungarumlautcmb" format="2">
  <unicode hex="030B"/>
  <note>
hungarumlautcmb
</note>
  <outline>
    <contour>
      <point x="-234" y="518" type="line"/>
      <point x="-98" y="667" type="line"/>
      <point x="-98" y="672" type="line"/>
      <point x="-106" y="682.667"/>
      <point x="-112.667" y="696"/>
      <point x="-142" y="696" type="curve"/>
      <point x="-245" y="524" type="line"/>
    </contour>
    <contour>
      <point x="-337" y="516" type="line"/>
      <point x="-217" y="667" type="line"/>
      <point x="-217" y="672" type="line"/>
      <point x="-225" y="682.667"/>
      <point x="-231.667" y="696"/>
      <point x="-261" y="696" type="curve"/>
      <point x="-348" y="522" type="line"/>
    </contour>
  </outline>
</glyph>
<glyph name="paragraphseparator-ethiopic" format="2">
  <advance width="461"/>
  <unicode hex="1368"/>
  <outline>
    <contour>
      <point x="292" y="394" type="curve" smooth="yes"/>
      <point x="292" y="361"/>
      <point x="265" y="337"/>
      <point x="234" y="337" type="curve" smooth="yes"/>
      <point x="203" y="337"/>
      <point x="175" y="359"/>
      <point x="175" y="394" type="curve" smooth="yes"/>
      <point x="175" y="429"/>
      <point x="203" y="451"/>
      <point x="234" y="451" type="curve" smooth="yes"/>
      <point x="265" y="451"/>
      <point x="292" y="425"/>
    </contour>
    <contour>
      <point x="282" y="-86" type="curve" smooth="yes"/>
      <point x="282" y="-119"/>
      <point x="255" y="-141"/>
      <point x="224" y="-141" type="curve" smooth="yes"/>
      <point x="193" y="-141"/>
      <point x="165" y="-122"/>
      <point x="165" y="-86" type="curve" smooth="yes"/>
      <point x="165" y="-51"/>
      <point x="193" y="-29"/>
      <point x="224" y="-29" type="curve" smooth="yes"/>
      <point x="255" y="-29"/>
      <point x="282" y="-55"/>
    </contour>
    <component base="period-ethiopic"/>
  </outline>
</glyph>
<glyph name="two-ethiopic" format="2">
  <advance width="693"/>
  <unicode hex="136A"/>
  <outline>
    <contour>
      <point x="370" y="-20" type="line" smooth="yes"/>
      <point x="413" y="-20"/>
      <point x="507" y="155"/>
      <point x="507" y="211" type="curve" smooth="yes"/>
      <point x="507" y="283"/>
      <point x="457" y="327"/>
      <point x="390" y="327" type="curve" smooth="yes"/>
      <point x="383" y="327"/>
      <point x="377" y="326"/>
      <point x="370" y="326" type="curve"/>
      <point x="397" y="351"/>
      <point x="424" y="378"/>
      <point x="442" y="400" type="curve" smooth="yes"/>
      <point x="480" y="446"/>
      <point x="507" y="496"/>
      <point x="507" y="552" type="curve" smooth="yes"/>
      <point x="507" y="624"/>
      <point x="457" y="668"/>
      <point x="390" y="668" type="curve" smooth="yes"/>
      <point x="303" y="668"/>
      <point x="181" y="580"/>
      <point x="181" y="507" type="curve" smooth="yes"/>
      <point x="181" y="-18" type="line"/>
      <point x="190" y="-18" type="line"/>
    </contour>
    <contour>
      <point x="245" y="15" type="line"/>
      <point x="245" y="206" type="line"/>
      <point x="303" y="251" type="line" smooth="yes"/>
      <point x="318" y="263"/>
      <point x="432" y="264"/>
      <point x="432" y="148" type="curve" smooth="yes"/>
      <point x="432" y="106"/>
      <point x="388" y="15"/>
      <point x="370" y="15" type="curve" smooth="yes"/>
    </contour>
    <contour>
      <point x="245" y="253" type="curve"/>
      <point x="245" y="504" type="line" smooth="yes"/>
      <point x="245" y="536"/>
      <point x="302" y="594"/>
      <point x="339" y="594" type="curve" smooth="yes"/>
      <point x="400" y="594"/>
      <point x="432" y="547"/>
      <point x="432" y="489" type="curve" smooth="yes"/>
      <point x="432" y="434"/>
      <point x="388" y="373"/>
      <point x="335" y="316" type="curve"/>
      <point x="301" y="284"/>
      <point x="271" y="269"/>
    </contour>
    <component base="_number.bars" xOffset="117"/>
  </outline>
</glyph>
<glyph name="five-ethiopic" format="2">
  <advance width="693"/>
  <unicode hex="136D"/>
  <outline>
    <contour>
      <point x="490" y="-41" type="curve"/>
      <point x="502" y="-37" type="line"/>
      <point x="493" y="-13"/>
      <point x="478" y="34"/>
      <point x="459" y="97" type="curve"/>
      <point x="261" y="97" type="line"/>
      <point x="284" y="493" type="line"/>
      <point x="279" y="644" type="line"/>
      <point x="229" y="642" type="line"/>
      <point x="213" y="1" type="line"/>
      <point x="426" y="1" type="line" smooth="yes"/>
      <point x="470" y="1"/>
      <point x="478" y="-13"/>
    </contour>
    <contour>
      <point x="271" y="447" type="line"/>
      <point x="418" y="447" type="line"/>
      <point x="418" y="474" type="line"/>
      <point x="271" y="474" type="line"/>
    </contour>
    <component base="_number.bars" xOffset="117"/>
  </outline>
</glyph>
<glyph name="eight-ethiopic" format="2">
  <advance width="689"/>
  <unicode hex="1370"/>
  <outline>
    <contour>
      <point x="241" y="0" type="line"/>
      <point x="480" y="0" type="line"/>
      <point x="480" y="15" type="line"/>
      <point x="446" y="15"/>
      <point x="395" y="28"/>
      <point x="395" y="73" type="curve" smooth="yes"/>
      <point x="395" y="562" type="line" smooth="yes"/>
      <point x="395" y="603"/>
      <point x="445" y="621"/>
      <point x="480" y="621" type="curve"/>
      <point x="480" y="636" type="line"/>
      <point x="237" y="636" type="line"/>
      <point x="237" y="621" type="line"/>
      <point x="273" y="621"/>
      <point x="327" y="604"/>
      <point x="327" y="563" type="curve" smooth="yes"/>
      <point x="327" y="74" type="line" smooth="yes"/>
      <point x="327" y="35"/>
      <point x="277" y="15"/>
      <point x="241" y="15" type="curve"/>
    </contour>
    <contour>
      <point x="165" y="-2" type="line"/>
      <point x="554" y="-2" type="line"/>
      <point x="554" y="43" type="line"/>
      <point x="165" y="43" type="line"/>
    </contour>
    <contour>
      <point x="165" y="596" type="line"/>
      <point x="554" y="596" type="line"/>
      <point x="554" y="641" type="line"/>
      <point x="165" y="641" type="line"/>
    </contour>
    <component base="_number.bars" xOffset="115"/>
  </outline>
</glyph>
<glyph name="nine-ethiopic" format="2">
  <advance width="693"/>
  <unicode hex="1371"/>
  <outline>
    <contour>
      <point x="375" y="7" type="curve" smooth="yes"/>
      <point x="492" y="7"/>
      <point x="590" y="137"/>
      <point x="590" y="318" type="curve" smooth="yes"/>
      <point x="590" y="435"/>
      <point x="549" y="596"/>
      <point x="490" y="646" type="curve"/>
      <point x="468" y="596" type="line"/>
      <point x="516" y="551"/>
      <point x="546" y="400"/>
      <point x="546" y="311" type="curve" smooth="yes"/>
      <point x="546" y="175"/>
      <point x="476" y="58"/>
      <point x="375" y="58" type="curve" smooth="yes"/>
      <point x="274" y="58"/>
      <point x="198" y="176"/>
      <point x="198" y="311" type="curve" smooth="yes"/>
      <point x="198" y="419"/>
      <point x="224" y="555"/>
      <point x="293" y="591" type="curve"/>
      <point x="298" y="649" type="line"/>
      <point x="201" y="609"/>
      <point x="155" y="457"/>
      <point x="155" y="321" type="curve" smooth="yes"/>
      <point x="155" y="114"/>
      <point x="265" y="7"/>
    </contour>
    <contour>
      <point x="198" y="400" type="line"/>
      <point x="546" y="400" type="line"/>
      <point x="546" y="438" type="line"/>
      <point x="198" y="438" type="line"/>
    </contour>
    <component base="_number.bars" xOffset="117"/>
  </outline>
</glyph>
<glyph name="emdash" format="2">
  <advance width="890"/>
  <unicode hex="2014"/>
  <note>
emdash
</note>
  <outline>
    <contour>
      <point x="92" y="237" type="line"/>
      <point x="798" y="237" type="line"/>
      <point x="798" y="283" type="line"/>
      <point x="92" y="283" type="line"/>
    </contour>
  </outline>
</glyph>
<glyph name="quotedblbase" format="2">
  <advance width="247"/>
  <unicode hex="201E"/>
  <note>
quotedblbase
</note>
  <outline>
    <contour>
      <point x="151" y="-83" type="line"/>
      <point x="215.373" y="-83"/>
      <point x="273" y="-40.629"/>
      <point x="273" y="24" type="curve" smooth="yes"/>
      <point x="273" y="68"/>
      <point x="244.333" y="105"/>
      <point x="199" y="105" type="curve" smooth="yes"/>
      <point x="168.333" y="105"/>
      <point x="141" y="87.333"/>
      <point x="141" y="54" type="curve" smooth="yes"/>
      <point x="141" y="34"/>
      <point x="155.333" y="12"/>
      <point x="182" y="12" type="curve" smooth="yes"/>
      <point x="192.667" y="12"/>
      <point x="204" y="14.667"/>
      <point x="216" y="24" type="curve"/>
      <point x="220" y="17.333"/>
      <point x="222" y="8.333"/>
      <point x="222" y="-3" type="curve" smooth="yes"/>
      <point x="222" y="-45.667"/>
      <point x="197.667" y="-63.667"/>
      <point x="151" y="-73" type="curve"/>
    </contour>
    <contour>
      <point x="9" y="-83" type="line"/>
      <point x="73.373" y="-83"/>
      <point x="131" y="-40.629"/>
      <point x="131" y="24" type="curve" smooth="yes"/>
      <point x="131" y="68"/>
      <point x="102.333" y="105"/>
      <point x="57" y="105" type="curve" smooth="yes"/>
      <point x="26.333" y="105"/>
      <point x="0" y="87.333"/>
      <point x="0" y="54" type="curve" smooth="yes"/>
      <point x="0" y="34"/>
      <point x="13.333" y="12"/>
      <point x="40" y="12" type="curve" smooth="yes"/>
      <point x="50.667" y="12"/>
      <point x="62" y="14.667"/>
      <point x="74" y="24" type="curve"/>
      <point x="78" y="18"/>
      <point x="80" y="9"/>
      <point x="80" y="-3" type="curve" smooth="yes"/>
      <point x="80" y="-45.667"/>
      <point x="55.667" y="-63.667"/>
      <point x="9" y="-73" type="curve"/>
    </contour>
  </outline>
</glyph>
<glyph name="dagger" format="2">
  <advance width="388"/>
  <unicode hex="2020"/>
  <note>
dagger
</note>
  <outline>
    <contour>
      <point x="194" y="197" type="curve" smooth="yes"/>
      <point x="216.667" y="197"/>
      <point x="235" y="216.333"/>
      <point x="235" y="239" type="curve" smooth="yes"/>
      <point x="235" y="259"/>
      <point x="221.667" y="278.333"/>
      <point x="203" y="281" type="curve"/>
      <point x="202" y="546" type="line"/>
      <point x="271" y="546" type="line"/>
      <point x="275" y="527.333"/>
      <point x="293" y="513"/>
      <point x="313" y="513" type="curve" smooth="yes"/>
      <point x="335.667" y="513"/>
      <point x="354" y="532.333"/>
      <point x="354" y="555" type="curve" smooth="yes"/>
      <point x="354" y="577.667"/>
      <point x="335.667" y="596"/>
      <point x="313" y="596" type="curve" smooth="yes"/>
      <point x="293" y="596"/>
      <point x="275" y="581.667"/>
      <point x="271" y="563" type="curve"/>
      <point x="202" y="563" type="line"/>
      <point x="202" y="645" type="line"/>
      <point x="220.667" y="649"/>
      <point x="235" y="667"/>
      <point x="235" y="687" type="curve" smooth="yes"/>
      <point x="235" y="709.667"/>
      <point x="216.667" y="728"/>
      <point x="194" y="728" type="curve" smooth="yes"/>
      <point x="171.333" y="728"/>
      <point x="153" y="709.667"/>
      <point x="153" y="687" type="curve" smooth="yes"/>
      <point x="153" y="667"/>
      <point x="167.333" y="649"/>
      <point x="186" y="645" type="curve"/>
      <point x="186" y="563" type="line"/>
      <point x="119" y="563" type="line"/>
      <point x="115" y="581.667"/>
      <point x="96" y="596"/>
      <point x="76" y="596" type="curve" smooth="yes"/>
      <point x="53.333" y="596"/>
      <point x="35" y="577.667"/>
      <point x="35" y="555" type="curve" smooth="yes"/>
      <point x="35" y="532.333"/>
      <point x="53.333" y="513"/>
      <point x="76" y="513" type="curve" smooth="yes"/>
      <point x="96" y="513"/>
      <point x="115" y="527.333"/>
      <point x="119" y="546" type="curve"/>
      <point x="186" y="546" type="line"/>
      <point x="185" y="281" type="line"/>
      <point x="166.333" y="278.333"/>
      <point x="153" y="259"/>
      <point x="153" y="239" type="curve" smooth="yes"/>
      <point x="153" y="216.333"/>
      <point x="171.333" y="197"/>
    </contour>
  </outline>
</glyph>
<glyph name="ellipsis" format="2">
  <advance width="755"/>
  <unicode hex="2026"/>
  <note>
ellipsis
</note>
  <outline>
    <contour>
      <point x="607" y="-1" type="curve" smooth="yes"/>
      <point x="640.333" y="-1"/>
      <point x="665" y="21.667"/>
      <point x="665" y="55" type="curve" smooth="yes"/>
      <point x="665" y="88.333"/>
      <point x="640.333" y="113"/>
      <point x="607" y="113" type="curve" smooth="yes"/>
      <point x="573.667" y="113"/>
      <point x="549" y="88.333"/>
      <point x="549" y="55" type="curve" smooth="yes"/>
      <point x="549" y="21.667"/>
      <point x="573.667" y="-1"/>
    </contour>
    <contour>
      <point x="147" y="-1" type="curve" smooth="yes"/>
      <point x="180.333" y="-1"/>
      <point x="205" y="21.667"/>
      <point x="205" y="55" type="curve" smooth="yes"/>
      <point x="205" y="88.333"/>
      <point x="180.333" y="113"/>
      <point x="147" y="113" type="curve" smooth="yes"/>
      <point x="113.667" y="113"/>
      <point x="89" y="88.333"/>
      <point x="89" y="55" type="curve" smooth="yes"/>
      <point x="89" y="21.667"/>
      <point x="113.667" y="-1"/>
    </contour>
    <contour>
      <point x="377" y="-1" type="curve" smooth="yes"/>
      <point x="410.333" y="-1"/>
      <point x="435" y="21.667"/>
      <point x="435" y="55" type="curve" smooth="yes"/>
      <point x="435" y="88.333"/>
      <point x="410.333" y="113"/>
      <point x="377" y="113" type="curve" smooth="yes"/>
      <point x="343.667" y="113"/>
      <point x="319" y="88.333"/>
      <point x="319" y="55" type="curve" smooth="yes"/>
      <point x="319" y="21.667"/>
      <point x="343.667" y="-1"/>
    </contour>
  </outline>
</glyph>
<glyph name="partialdiff" format="2">
  <advance width="651"/>
  <unicode hex="2202"/>
  <note>
partialdiff
</note>
  <outline>
    <contour>
      <point x="269" y="-12" type="curve" smooth="yes"/>
      <point x="367.667" y="-12"/>
      <point x="449.333" y="24.333"/>
      <point x="514" y="97" type="curve" smooth="yes"/>
      <point x="580" y="171"/>
      <point x="613" y="263.333"/>
      <point x="613" y="374" type="curve" smooth="yes"/>
      <point x="613" y="432"/>
      <point x="602.333" y="491"/>
      <point x="581" y="551" type="curve" smooth="yes"/>
      <point x="560.333" y="608.333"/>
      <point x="532.667" y="655"/>
      <point x="498" y="691" type="curve" smooth="yes"/>
      <point x="434" y="755.667"/>
      <point x="347" y="788"/>
      <point x="237" y="788" type="curve" smooth="yes"/>
      <point x="223" y="788" type="line"/>
      <point x="223" y="758" type="line"/>
      <point x="235" y="758" type="line" smooth="yes"/>
      <point x="301" y="758"/>
      <point x="360" y="729"/>
      <point x="412" y="671" type="curve" smooth="yes"/>
      <point x="443.333" y="637"/>
      <point x="468.333" y="585"/>
      <point x="487" y="515" type="curve"/>
      <point x="454.333" y="535"/>
      <point x="418.333" y="545"/>
      <point x="379" y="545" type="curve" smooth="yes"/>
      <point x="199" y="545"/>
      <point x="42" y="388.333"/>
      <point x="42" y="207" type="curve" smooth="yes"/>
      <point x="42" y="68.426"/>
      <point x="130.423" y="-12"/>
    </contour>
    <contour>
      <point x="271" y="15" type="curve" smooth="yes"/>
      <point x="193.667" y="15"/>
      <point x="147" y="80"/>
      <point x="147" y="188" type="curve" smooth="yes"/>
      <point x="147" y="271.333"/>
      <point x="171.333" y="346.333"/>
      <point x="220" y="413" type="curve" smooth="yes"/>
      <point x="269.333" y="481"/>
      <point x="323.333" y="515"/>
      <point x="382" y="515" type="curve" smooth="yes"/>
      <point x="458" y="515"/>
      <point x="503" y="457"/>
      <point x="503" y="357" type="curve" smooth="yes"/>
      <point x="503" y="264.333"/>
      <point x="480" y="184"/>
      <point x="434" y="116" type="curve" smooth="yes"/>
      <point x="388.667" y="48.667"/>
      <point x="334.333" y="15"/>
    </contour>
  </outline>
</glyph>
<glyph name="Delta" format="2">
  <advance width="803"/>
  <unicode hex="2206"/>
  <note>
Delta
</note>
  <outline>
    <contour>
      <point x="53" y="0" type="line"/>
      <point x="750" y="0" type="line"/>
      <point x="750" y="83" type="line"/>
      <point x="410" y="780" type="line"/>
      <point x="384" y="780" type="line"/>
      <point x="53" y="83" type="line"/>
    </contour>
    <contour>
      <point x="97" y="83" type="line"/>
      <point x="364" y="647" type="line"/>
      <point x="639" y="83" type="line"/>
    </contour>
  </outline>
</glyph>
<glyph name="product" format="2">
  <advance width="799"/>
  <unicode hex="220F"/>
  <note>
product
</note>
  <outline>
    <contour>
      <point x="38" y="-179" type="line"/>
      <point x="318" y="-179" type="line"/>
      <point x="318" y="-148" type="line"/>
      <point x="311" y="-148" type="line" smooth="yes"/>
      <point x="243" y="-148"/>
      <point x="228" y="-130"/>
      <point x="228" y="-50" type="curve" smooth="yes"/>
      <point x="228" y="720" type="line"/>
      <point x="572" y="720" type="line"/>
      <point x="572" y="-50" type="line" smooth="yes"/>
      <point x="572" y="-130"/>
      <point x="557" y="-148"/>
      <point x="489" y="-148" type="curve" smooth="yes"/>
      <point x="481" y="-148" type="line"/>
      <point x="481" y="-179" type="line"/>
      <point x="762" y="-179" type="line"/>
      <point x="762" y="-148" type="line"/>
      <point x="754" y="-148" type="line" smooth="yes"/>
      <point x="686" y="-148"/>
      <point x="671" y="-130"/>
      <point x="671" y="-50" type="curve" smooth="yes"/>
      <point x="671" y="629" type="line" smooth="yes"/>
      <point x="671" y="709"/>
      <point x="686" y="727"/>
      <point x="754" y="727" type="curve" smooth="yes"/>
      <point x="762" y="727" type="line"/>
      <point x="762" y="758" type="line"/>
      <point x="38" y="758" type="line"/>
      <point x="38" y="727" type="line"/>
      <point x="46" y="727" type="line" smooth="yes"/>
      <point x="114" y="727"/>
      <point x="129" y="709"/>
      <point x="129" y="629" type="curve" smooth="yes"/>
      <point x="129" y="-50" type="line" smooth="yes"/>
      <point x="129" y="-130"/>
      <point x="114" y="-148"/>
      <point x="46" y="-148" type="curve" smooth="yes"/>
      <point x="38" y="-148" type="line"/>
    </contour>
  </outline>
</glyph>
<glyph name="ff" format="2">
  <advance width="539"/>
  <unicode hex="FB00"/>
  <note>
ff
</note>
  <outline>
    <contour>
      <point x="9" y="0" type="line"/>
      <point x="244" y="0" type="line"/>
      <point x="244" y="10" type="line"/>
      <point x="216.512" y="12.749"/>
      <point x="173.237" y="17.053"/>
      <point x="168" y="38" type="curve"/>
      <point x="168" y="429" type="line"/>
      <point x="354" y="429" type="line"/>
      <point x="354" y="42" type="line" smooth="yes"/>
      <point x="354" y="21.502"/>
      <point x="308.319" y="12.443"/>
      <point x="279" y="10" type="curve"/>
      <point x="279" y="0" type="line"/>
      <point x="523" y="0" type="line"/>
      <point x="523" y="10" type="line"/>
      <point x="492.898" y="16.02"/>
      <point x="442.47" y="10.651"/>
      <point x="437" y="38" type="curve"/>
      <point x="437" y="429" type="line"/>
      <point x="540" y="429" type="line"/>
      <point x="556" y="472" type="line"/>
      <point x="438" y="472" type="line"/>
      <point x="438" y="484"/>
      <point x="438" y="495"/>
      <point x="438" y="505" type="curve" smooth="yes"/>
      <point x="438" y="515"/>
      <point x="438" y="524.667"/>
      <point x="438" y="534" type="curve" smooth="yes"/>
      <point x="438" y="554"/>
      <point x="438.667" y="574.333"/>
      <point x="440" y="601" type="curve" smooth="yes"/>
      <point x="444.467" y="676.941"/>
      <point x="479.975" y="700"/>
      <point x="511" y="700" type="curve"/>
      <point x="552.602" y="691.085"/>
      <point x="557.695" y="634"/>
      <point x="606" y="634" type="curve" smooth="yes"/>
      <point x="631.333" y="634"/>
      <point x="648" y="652"/>
      <point x="648" y="676" type="curve" smooth="yes"/>
      <point x="648" y="712.498"/>
      <point x="605.541" y="728"/>
      <point x="566" y="728" type="curve" smooth="yes"/>
      <point x="507.333" y="728"/>
      <point x="452.667" y="705.333"/>
      <point x="414" y="672" type="curve"/>
      <point x="403.333" y="702.667"/>
      <point x="365" y="723"/>
      <point x="297" y="723" type="curve" smooth="yes"/>
      <point x="213.355" y="723"/>
      <point x="132.02" y="669.381"/>
      <point x="100" y="592" type="curve" smooth="yes"/>
      <point x="88" y="562.667"/>
      <point x="86" y="528"/>
      <point x="86" y="472" type="curve"/>
      <point x="29" y="472" type="line"/>
      <point x="13" y="429" type="line"/>
      <point x="85" y="429" type="line"/>
      <point x="85" y="42" type="line" smooth="yes"/>
      <point x="85" y="21.56"/>
      <point x="38.508" y="12.459"/>
      <point x="9" y="10" type="curve"/>
    </contour>
    <contour>
      <point x="168" y="472" type="line"/>
      <point x="168" y="484"/>
      <point x="168" y="493.333"/>
      <point x="168" y="500" type="curve" smooth="yes"/>
      <point x="168" y="512.642"/>
      <point x="170.905" y="552.091"/>
      <point x="172" y="574" type="curve" smooth="yes"/>
      <point x="178.673" y="678.543"/>
      <point x="239.289" y="704"/>
      <point x="278" y="704" type="curve"/>
      <point x="335.355" y="696.519"/>
      <point x="326.937" y="632.482"/>
      <point x="375" y="624" type="curve"/>
      <point x="357.667" y="592"/>
      <point x="356" y="528"/>
      <point x="356" y="472" type="curve"/>
    </contour>
  </outline>
</glyph>
<glyph name="ffi" format="2">
  <advance width="793"/>
  <unicode hex="FB03"/>
  <note>
ffi
</note>
  <outline>
    <contour>
      <point x="9" y="0" type="line"/>
      <point x="242" y="0" type="line"/>
      <point x="242" y="10" type="line"/>
      <point x="212.768" y="15.846"/>
      <point x="173.47" y="10.649"/>
      <point x="168" y="38" type="curve"/>
      <point x="168" y="428" type="line"/>
      <point x="357" y="428" type="line"/>
      <point x="357" y="42" type="line" smooth="yes"/>
      <point x="357" y="21.502"/>
      <point x="313.527" y="12.544"/>
      <point x="283" y="10" type="curve"/>
      <point x="283" y="0" type="line"/>
      <point x="516" y="0" type="line"/>
      <point x="516" y="10" type="line"/>
      <point x="487.58" y="15.684"/>
      <point x="445.523" y="10.384"/>
      <point x="440" y="38" type="curve"/>
      <point x="440" y="430" type="line"/>
      <point x="610" y="430" type="line" smooth="yes"/>
      <point x="620.667" y="430"/>
      <point x="625" y="421.667"/>
      <point x="625" y="411" type="curve" smooth="yes"/>
      <point x="625" y="42" type="line" smooth="yes"/>
      <point x="625" y="16.974"/>
      <point x="586.53" y="12.461"/>
      <point x="557" y="10" type="curve"/>
      <point x="557" y="0" type="line"/>
      <point x="772" y="0" type="line"/>
      <point x="772" y="10" type="line"/>
      <point x="745.178" y="15.364"/>
      <point x="713.247" y="9.763"/>
      <point x="708" y="36" type="curve"/>
      <point x="708" y="496" type="line"/>
      <point x="700" y="496" type="line"/>
      <point x="694.667" y="484"/>
      <point x="691" y="477.333"/>
      <point x="675" y="472" type="curve"/>
      <point x="440" y="472" type="line"/>
      <point x="440" y="484"/>
      <point x="440" y="493.333"/>
      <point x="440" y="500" type="curve" smooth="yes"/>
      <point x="440" y="510.785"/>
      <point x="442.207" y="557.131"/>
      <point x="443" y="573" type="curve" smooth="yes"/>
      <point x="447.651" y="659.036"/>
      <point x="499.026" y="709"/>
      <point x="547" y="709" type="curve" smooth="yes"/>
      <point x="551" y="709"/>
      <point x="554.333" y="709"/>
      <point x="557" y="709" type="curve" smooth="yes"/>
      <point x="560.333" y="709"/>
      <point x="563.667" y="708.333"/>
      <point x="567" y="707" type="curve"/>
      <point x="622.176" y="672.152"/>
      <point x="585.951" y="622"/>
      <point x="658" y="622" type="curve" smooth="yes"/>
      <point x="676.667" y="622"/>
      <point x="697" y="638.333"/>
      <point x="697" y="665" type="curve" smooth="yes"/>
      <point x="697" y="681.667"/>
      <point x="687.333" y="696.333"/>
      <point x="668" y="709" type="curve" smooth="yes"/>
      <point x="648.667" y="721.667"/>
      <point x="616.667" y="728"/>
      <point x="572" y="728" type="curve" smooth="yes"/>
      <point x="516" y="728"/>
      <point x="458.667" y="700.667"/>
      <point x="424" y="650" type="curve"/>
      <point x="399.167" y="689.023"/>
      <point x="377.898" y="723"/>
      <point x="297" y="723" type="curve" smooth="yes"/>
      <point x="213.355" y="723"/>
      <point x="132.02" y="669.381"/>
      <point x="100" y="592" type="curve" smooth="yes"/>
      <point x="88" y="562.667"/>
      <point x="86" y="528"/>
      <point x="86" y="472" type="curve"/>
      <point x="37" y="472" type="line"/>
      <point x="13" y="428" type="line"/>
      <point x="85" y="428" type="line"/>
      <point x="85" y="42" type="line" smooth="yes"/>
      <point x="85" y="21.56"/>
      <point x="38.508" y="12.459"/>
      <point x="9" y="10" type="curve"/>
    </contour>
    <contour>
      <point x="168" y="472" type="line"/>
      <point x="168" y="483.333"/>
      <point x="168" y="492.333"/>
      <point x="168" y="499" type="curve" smooth="yes"/>
      <point x="168" y="510.902"/>
      <point x="170.892" y="551.83"/>
      <point x="172" y="574" type="curve" smooth="yes"/>
      <point x="178.673" y="678.543"/>
      <point x="239.289" y="704"/>
      <point x="278" y="704" type="curve"/>
      <point x="327.313" y="697.276"/>
      <point x="354.425" y="653.027"/>
      <point x="358" y="628" type="curve"/>
      <point x="358" y="472" type="line"/>
    </contour>
  </outline>
</glyph>
<glyph name="_smart.cha" format="2">
  <anchor x="1" y="113" name="_cha"/>
  <outline>
    <contour>
      <point x="194" y="84" type="curve" smooth="yes"/>
      <point x="219" y="84"/>
      <point x="240" y="105"/>
      <point x="240" y="130" type="curve" smooth="yes"/>
      <point x="240" y="155"/>
      <point x="219" y="176"/>
      <point x="194" y="176" type="curve" smooth="yes"/>
      <point x="169" y="176"/>
      <point x="148" y="155"/>
      <point x="148" y="130" type="curve" smooth="yes"/>
      <point x="148" y="105"/>
      <point x="169" y="84"/>
    </contour>
    <contour>
      <point x="-178" y="84" type="curve" smooth="yes"/>
      <point x="-153" y="84"/>
      <point x="-132" y="105"/>
      <point x="-132" y="130" type="curve" smooth="yes"/>
      <point x="-132" y="155"/>
      <point x="-153" y="176"/>
      <point x="-178" y="176" type="curve" smooth="yes"/>
      <point x="-203" y="176"/>
      <point x="-224" y="155"/>
      <point x="-224" y="130" type="curve" smooth="yes"/>
      <point x="-224" y="105"/>
      <point x="-203" y="84"/>
    </contour>
  </outline>
</glyph>
<glyph name="_smart.eGl" format="2">
  <anchor x="5" y="595" name="_eGl"/>
  <outline>
    <contour>
      <point x="-18" y="756" type="line"/>
      <point x="-18" y="609" type="line"/>
      <point x="39" y="609" type="line"/>
      <point x="39" y="756" type="line"/>
    </contour>
  </outline>
</glyph>
<glyph name="_smart.fa" format="2">
  <anchor x="-5" y="-2" name="_fa"/>
  <outline>
    <contour>
      <point x="-198" y="160" type="line"/>
      <point x="-11" y="160" type="line"/>
      <point x="-11" y="1" type="line"/>
      <point x="24" y="0" type="line"/>
      <point x="30" y="179" type="line"/>
      <point x="17" y="195" type="line"/>
      <point x="-185" y="189" type="line"/>
    </contour>
  </outline>
</glyph>
<glyph name="_smart.he.acute" format="2">
  <anchor x="-1" y="470" name="_he.acute"/>
  <outline>
    <contour>
      <point x="-6" y="469" type="line"/>
      <point x="2" y="476" type="line"/>
      <point x="-94" y="661" type="line"/>
      <point x="-98" y="662" type="line"/>
      <point x="-112" y="659"/>
      <point x="-127" y="655"/>
      <point x="-136" y="627" type="curve"/>
    </contour>
  </outline>
</glyph>
<glyph name="_smart.hee" format="2">
  <anchor x="0" y="0" name="_hee"/>
  <outline>
    <contour>
      <point x="1" y="-177" type="curve" smooth="yes"/>
      <point x="58" y="-177"/>
      <point x="101" y="-136"/>
      <point x="101" y="-81" type="curve" smooth="yes"/>
      <point x="101" y="-24"/>
      <point x="58" y="15"/>
      <point x="1" y="15" type="curve" smooth="yes"/>
      <point x="-54" y="15"/>
      <point x="-99" y="-26"/>
      <point x="-99" y="-81" type="curve" smooth="yes"/>
      <point x="-99" y="-138"/>
      <point x="-59" y="-177"/>
    </contour>
    <contour>
      <point x="1" y="-150" type="curve" smooth="yes"/>
      <point x="-38" y="-150"/>
      <point x="-62" y="-120"/>
      <point x="-62" y="-81" type="curve" smooth="yes"/>
      <point x="-62" y="-40"/>
      <point x="-37" y="-12"/>
      <point x="1" y="-12" type="curve" smooth="yes"/>
      <point x="40" y="-12"/>
      <point x="64" y="-42"/>
      <point x="64" y="-81" type="curve" smooth="yes"/>
      <point x="64" y="-120"/>
      <point x="40" y="-150"/>
    </contour>
  </outline>
</glyph>
<glyph name="_smart.hi" format="2">
  <anchor x="-20" y="0" name="_hi"/>
  <outline>
    <contour>
      <point x="-22" y="-207" type="line"/>
      <point x="149" y="-207" type="line"/>
      <point x="142" y="-186" type="line"/>
      <point x="6" y="-146" type="line"/>
      <point x="-11" y="-5" type="line"/>
      <point x="-25" y="-4" type="line"/>
      <point x="-35" y="-199" type="line"/>
    </contour>
  </outline>
</glyph>
<glyph name="_smart.ho.ring" format="2">
  <anchor x="4" y="484" name="_ho.ring"/>
  <outline>
    <contour>
      <point x="-16" y="410" type="curve" smooth="yes"/>
      <point x="42" y="410"/>
      <point x="83" y="451"/>
      <point x="83" y="506" type="curve" smooth="yes"/>
      <point x="83" y="564"/>
      <point x="42" y="602"/>
      <point x="-16" y="602" type="curve" smooth="yes"/>
      <point x="-71" y="602"/>
      <point x="-115" y="561"/>
      <point x="-115" y="506" type="curve" smooth="yes"/>
      <point x="-115" y="448"/>
      <point x="-75" y="410"/>
    </contour>
    <contour>
      <point x="-16" y="436" type="curve" smooth="yes"/>
      <point x="-55" y="436"/>
      <point x="-79" y="467"/>
      <point x="-79" y="506" type="curve" smooth="yes"/>
      <point x="-79" y="548"/>
      <point x="-54" y="576"/>
      <point x="-16" y="576" type="curve" smooth="yes"/>
      <point x="23" y="576"/>
      <point x="47" y="545"/>
      <point x="47" y="506" type="curve" smooth="yes"/>
      <point x="47" y="467"/>
      <point x="23" y="436"/>
    </contour>
  </outline>
</glyph>
<glyph name="_smart.le.ring" format="2">
  <anchor x="-1" y="69" name="_le.ring"/>
  <outline>
    <contour>
      <point x="69" y="14" type="curve" smooth="yes"/>
      <point x="112" y="14"/>
      <point x="143" y="45"/>
      <point x="143" y="86" type="curve" smooth="yes"/>
      <point x="143" y="129"/>
      <point x="112" y="158"/>
      <point x="69" y="158" type="curve" smooth="yes"/>
      <point x="28" y="158"/>
      <point x="-5" y="127"/>
      <point x="-5" y="86" type="curve" smooth="yes"/>
      <point x="-5" y="43"/>
      <point x="25" y="14"/>
    </contour>
    <contour>
      <point x="69" y="34" type="curve" smooth="yes"/>
      <point x="40" y="34"/>
      <point x="22" y="57"/>
      <point x="22" y="86" type="curve" smooth="yes"/>
      <point x="22" y="117"/>
      <point x="41" y="138"/>
      <point x="69" y="138" type="curve" smooth="yes"/>
      <point x="98" y="138"/>
      <point x="116" y="115"/>
      <point x="116" y="86" type="curve" smooth="yes"/>
      <point x="116" y="57"/>
      <point x="98" y="34"/>
    </contour>
  </outline>
</glyph>
<glyph name="_smart.ri" format="2">
  <anchor x="3" y="159" name="_ri"/>
  <outline>
    <contour>
      <point x="12" y="233" type="line"/>
      <point x="18" y="358" type="line"/>
      <point x="5" y="366" type="line"/>
      <point x="-166" y="366" type="line"/>
      <point x="-159" y="351" type="line"/>
      <point x="-23" y="306" type="line"/>
      <point x="4" y="234" type="line"/>
    </contour>
  </outline>
</glyph>
<glyph name="_smart.yu" format="2">
  <anchor x="-7" y="-75" name="_yu"/>
  <outline>
    <contour>
      <point x="-114" y="-94" type="line"/>
      <point x="77" y="-94" type="line"/>
      <point x="77" y="-49" type="line"/>
      <point x="-114" y="-49" type="line"/>
    </contour>
  </outline>
</glyph>
<glyph name="aGl.base.cap" format="2">
  <advance width="704"/>
  <anchor x="578" y="0" name="haa"/>
  <anchor x="294" y="661" name="hat"/>
  <anchor x="187" y="745" name="hat.left"/>
  <anchor x="266" y="252" name="he"/>
  <anchor x="144" y="665" name="he.acute"/>
  <anchor x="565" y="-49" name="hee"/>
  <anchor x="567" y="3" name="hi"/>
  <anchor x="99" y="4" name="ho"/>
  <anchor x="671" y="253" name="hu"/>
  <anchor x="572" y="1" name="hwa"/>
  <outline>
    <contour>
      <point x="271" y="617" type="line" smooth="yes"/>
      <point x="246.869" y="548.942"/>
      <point x="220.643" y="478.033"/>
      <point x="204" y="433" type="curve" smooth="yes"/>
      <point x="170" y="341"/>
      <point x="138" y="256"/>
      <point x="106" y="172" type="curve" smooth="yes"/>
      <point x="99" y="151"/>
      <point x="92" y="134"/>
      <point x="86" y="121" type="curve" smooth="yes"/>
      <point x="79" y="107"/>
      <point x="72" y="91"/>
      <point x="64" y="74" type="curve" smooth="yes"/>
      <point x="53" y="52"/>
      <point x="21" y="14"/>
      <point x="-32" y="12" type="curve"/>
      <point x="-32" y="0" type="line"/>
      <point x="260" y="0" type="line"/>
      <point x="260" y="10" type="line"/>
      <point x="242" y="10"/>
      <point x="190" y="23"/>
      <point x="190" y="56" type="curve" smooth="yes"/>
      <point x="190" y="69"/>
      <point x="200" y="104"/>
      <point x="211" y="136" type="curve" smooth="yes"/>
      <point x="224" y="175"/>
      <point x="242" y="224"/>
      <point x="262" y="276" type="curve" smooth="yes"/>
      <point x="270" y="297" type="line"/>
      <point x="300.25" y="375.154" type="line"/>
      <point x="437" y="375" type="line"/>
      <point x="448.806" y="348.109"/>
      <point x="459.526" y="320.685"/>
      <point x="469" y="297" type="curve" smooth="yes"/>
      <point x="478" y="276" type="line" smooth="yes"/>
      <point x="488" y="251"/>
      <point x="498" y="227"/>
      <point x="507" y="204" type="curve" smooth="yes"/>
      <point x="535" y="134" type="line" smooth="yes"/>
      <point x="549" y="98"/>
      <point x="556" y="73"/>
      <point x="556" y="58" type="curve" smooth="yes"/>
      <point x="556" y="23"/>
      <point x="509" y="16"/>
      <point x="473" y="10" type="curve"/>
      <point x="473" y="0" type="line"/>
      <point x="736" y="0" type="line"/>
      <point x="736" y="11" type="line"/>
      <point x="719" y="13"/>
      <point x="704" y="18"/>
      <point x="692" y="25" type="curve" smooth="yes"/>
      <point x="679" y="32"/>
      <point x="672" y="37"/>
      <point x="670" y="40" type="curve" smooth="yes"/>
      <point x="665" y="45"/>
      <point x="658" y="56"/>
      <point x="647" y="73" type="curve" smooth="yes"/>
      <point x="636" y="90"/>
      <point x="623" y="116"/>
      <point x="608" y="150" type="curve" smooth="yes"/>
      <point x="580" y="213"/>
      <point x="544" y="296"/>
      <point x="508" y="381" type="curve" smooth="yes"/>
      <point x="505" y="387"/>
      <point x="503" y="393"/>
      <point x="500" y="397" type="curve"/>
      <point x="308.901" y="397.297" type="line"/>
      <point x="339" y="474" type="line" smooth="yes"/>
      <point x="346.335" y="494.171"/>
      <point x="355.351" y="516.863"/>
      <point x="363.736" y="538.224" type="curve" smooth="yes"/>
      <point x="377" y="571" type="line"/>
      <point x="333" y="590"/>
      <point x="307" y="629"/>
      <point x="293" y="654" type="curve"/>
      <point x="285" y="654" type="line"/>
    </contour>
    <contour>
      <point x="151" y="579" type="line"/>
      <point x="242" y="579" type="line"/>
      <point x="242" y="774" type="line"/>
      <point x="151" y="774" type="line"/>
    </contour>
  </outline>
</glyph>
<glyph name="da.base" format="2">
  <advance width="549"/>
  <anchor x="496" y="-34" name="haa"/>
  <anchor x="267" y="658" name="hat"/>
  <anchor x="474" y="322" name="he"/>
  <anchor x="316" y="-22" name="hee"/>
  <anchor x="408" y="0" name="hi"/>
  <anchor x="84" y="-32" name="ho"/>
  <anchor x="552" y="91" name="hu"/>
  <anchor x="500" y="-31" name="hwa"/>
  <anchor x="268" y="477" name="neck"/>
  <outline>
    <contour>
      <point x="437" y="-75" type="curve" smooth="yes"/>
      <point x="476" y="-75"/>
      <point x="499" y="-31"/>
      <point x="499" y="9" type="curve" smooth="yes"/>
      <point x="499" y="26"/>
      <point x="489" y="80"/>
      <point x="329" y="80" type="curve" smooth="yes"/>
      <point x="128" y="80" type="line"/>
      <point x="128" y="194" type="line"/>
      <point x="498" y="197" type="line"/>
      <point x="498" y="215"/>
      <point x="498" y="227"/>
      <point x="498" y="238" type="curve" smooth="yes"/>
      <point x="498" y="371"/>
      <point x="399" y="489"/>
      <point x="262" y="489" type="curve" smooth="yes"/>
      <point x="185" y="489"/>
      <point x="122" y="455"/>
      <point x="84" y="428" type="curve" smooth="yes"/>
      <point x="46" y="401" type="line"/>
      <point x="46" y="80" type="line"/>
      <point x="25" y="80" type="line"/>
      <point x="79" y="-36" type="line"/>
      <point x="86" y="-36" type="line"/>
      <point x="91" y="-28"/>
      <point x="96" y="-18"/>
      <point x="102" y="-7" type="curve" smooth="yes"/>
      <point x="108" y="4"/>
      <point x="113" y="12"/>
      <point x="118" y="17" type="curve" smooth="yes"/>
      <point x="126" y="26"/>
      <point x="128" y="27"/>
      <point x="139" y="27" type="curve" smooth="yes"/>
      <point x="329" y="27" type="line" smooth="yes"/>
      <point x="388" y="27"/>
      <point x="436" y="17"/>
      <point x="436" y="2" type="curve"/>
      <point x="414" y="-7"/>
      <point x="404" y="-13"/>
      <point x="404" y="-25" type="curve" smooth="yes"/>
      <point x="404" y="-58"/>
      <point x="423" y="-75"/>
    </contour>
    <contour>
      <point x="128" y="229" type="line"/>
      <point x="129" y="287" type="line" smooth="yes"/>
      <point x="131" y="381"/>
      <point x="168" y="467"/>
      <point x="265" y="467" type="curve" smooth="yes"/>
      <point x="353" y="467"/>
      <point x="407" y="371"/>
      <point x="407" y="253" type="curve" smooth="yes"/>
      <point x="407" y="229" type="line"/>
    </contour>
  </outline>
</glyph>
<glyph name="ha.base.cap" format="2">
  <advance width="806"/>
  <anchor x="582" y="-1" name="haa"/>
  <anchor x="213" y="480" name="he"/>
  <anchor x="582" y="-25" name="hee"/>
  <anchor x="582" y="-2" name="hi"/>
  <anchor x="552" y="583" name="ho.ring"/>
  <anchor x="775" y="478" name="hu"/>
  <anchor x="322" y="-3" name="hwa"/>
  <outline>
    <contour>
      <point x="385" y="-10" type="curve" smooth="yes"/>
      <point x="434" y="-10"/>
      <point x="475" y="-5"/>
      <point x="508" y="6" type="curve" smooth="yes"/>
      <point x="575" y="26"/>
      <point x="616" y="63"/>
      <point x="640" y="107" type="curve" smooth="yes"/>
      <point x="673" y="168"/>
      <point x="675" y="223"/>
      <point x="677" y="281" type="curve" smooth="yes"/>
      <point x="683" y="497" type="line" smooth="yes"/>
      <point x="684" y="547"/>
      <point x="688" y="627"/>
      <point x="697" y="648" type="curve" smooth="yes"/>
      <point x="713" y="687"/>
      <point x="740" y="703"/>
      <point x="789" y="710" type="curve"/>
      <point x="789" y="720" type="line"/>
      <point x="541" y="720" type="line"/>
      <point x="541" y="710" type="line"/>
      <point x="605" y="701"/>
      <point x="635" y="677"/>
      <point x="648" y="640" type="curve" smooth="yes"/>
      <point x="658" y="615"/>
      <point x="659" y="539"/>
      <point x="659" y="497" type="curve" smooth="yes"/>
      <point x="659" y="483"/>
      <point x="659" y="469"/>
      <point x="659" y="456" type="curve" smooth="yes"/>
      <point x="659" y="417" type="line" smooth="yes"/>
      <point x="659" y="404"/>
      <point x="659" y="391"/>
      <point x="659" y="376" type="curve" smooth="yes"/>
      <point x="659" y="327" type="line" smooth="yes"/>
      <point x="659" y="261"/>
      <point x="653" y="181"/>
      <point x="624" y="124" type="curve" smooth="yes"/>
      <point x="598" y="74"/>
      <point x="499" y="22"/>
      <point x="419" y="22" type="curve" smooth="yes"/>
      <point x="286" y="22"/>
      <point x="209" y="115"/>
      <point x="206" y="256" type="curve" smooth="yes"/>
      <point x="206" y="272"/>
      <point x="206" y="287"/>
      <point x="206" y="302" type="curve" smooth="yes"/>
      <point x="205" y="346" type="line" smooth="yes"/>
      <point x="205" y="362"/>
      <point x="205" y="379"/>
      <point x="205" y="397" type="curve" smooth="yes"/>
      <point x="205" y="458" type="line" smooth="yes"/>
      <point x="205" y="476"/>
      <point x="205" y="492"/>
      <point x="205" y="505" type="curve" smooth="yes"/>
      <point x="205" y="545" type="line" smooth="yes"/>
      <point x="205" y="570"/>
      <point x="206" y="595"/>
      <point x="207" y="630" type="curve" smooth="yes"/>
      <point x="210" y="688"/>
      <point x="253" y="704"/>
      <point x="298" y="710" type="curve"/>
      <point x="298" y="720" type="line"/>
      <point x="0" y="720" type="line"/>
      <point x="0" y="710" type="line"/>
      <point x="35" y="706"/>
      <point x="62" y="698"/>
      <point x="81" y="675" type="curve" smooth="yes"/>
      <point x="92" y="662"/>
      <point x="96" y="622"/>
      <point x="96" y="594" type="curve" smooth="yes"/>
      <point x="96" y="558" type="line"/>
      <point x="96" y="425" type="line" smooth="yes"/>
      <point x="96" y="388"/>
      <point x="96" y="355"/>
      <point x="96" y="325" type="curve" smooth="yes"/>
      <point x="95" y="252" type="line" smooth="yes"/>
      <point x="94" y="213"/>
      <point x="100" y="158"/>
      <point x="133" y="102" type="curve" smooth="yes"/>
      <point x="144" y="81"/>
      <point x="161" y="63"/>
      <point x="182" y="46" type="curve" smooth="yes"/>
      <point x="225" y="12"/>
      <point x="289" y="-10"/>
    </contour>
  </outline>
</glyph>
<glyph name="re.base" format="2">
  <advance width="450"/>
  <anchor x="275" y="69" name="fa"/>
  <anchor x="368" y="2" name="haa"/>
  <anchor x="212" y="585" name="hat"/>
  <anchor x="89" y="250" name="he"/>
  <anchor x="258" y="356" name="ho.ring"/>
  <anchor x="352" y="-4" name="hwa"/>
  <outline>
    <contour>
      <point x="241" y="-3" type="curve" smooth="yes"/>
      <point x="339" y="-3"/>
      <point x="416" y="58"/>
      <point x="441" y="143" type="curve"/>
      <point x="433" y="147" type="line"/>
      <point x="401" y="94"/>
      <point x="358" y="66"/>
      <point x="275" y="66" type="curve" smooth="yes"/>
      <point x="169" y="66"/>
      <point x="105" y="150"/>
      <point x="105" y="268" type="curve" smooth="yes"/>
      <point x="105" y="372"/>
      <point x="163" y="467"/>
      <point x="248" y="467" type="curve" smooth="yes"/>
      <point x="304" y="467"/>
      <point x="329" y="430"/>
      <point x="329" y="381" type="curve" smooth="yes"/>
      <point x="329" y="368"/>
      <point x="327" y="356"/>
      <point x="324" y="347" type="curve"/>
      <point x="329" y="327"/>
      <point x="349" y="312"/>
      <point x="372" y="312" type="curve" smooth="yes"/>
      <point x="400" y="312"/>
      <point x="424" y="336"/>
      <point x="424" y="364" type="curve" smooth="yes"/>
      <point x="424" y="440"/>
      <point x="333" y="483"/>
      <point x="246" y="483" type="curve" smooth="yes"/>
      <point x="117" y="483"/>
      <point x="20" y="370"/>
      <point x="20" y="242" type="curve" smooth="yes"/>
      <point x="20" y="104"/>
      <point x="111" y="-3"/>
    </contour>
  </outline>
</glyph>
<glyph name="wa.base.cap" format="2">
  <advance width="869"/>
  <anchor x="448" y="9" name="haa"/>
  <anchor x="451" y="0" name="haa.acute"/>
  <anchor x="462" y="854" name="hat"/>
  <anchor x="549" y="727" name="he.acute"/>
  <anchor x="459" y="-15" name="hee"/>
  <anchor x="447" y="5" name="hi"/>
  <anchor x="455" y="765" name="ho.ring"/>
  <anchor x="834" y="657" name="hu"/>
  <anchor x="440" y="0" name="hwa"/>
  <anchor x="446" y="685" name="neck"/>
  <outline>
    <contour>
      <point x="396" y="-4.957" type="curve" smooth="yes"/>
      <point x="475" y="-5" type="line" smooth="yes"/>
      <point x="573" y="-5"/>
      <point x="661.488" y="35.38"/>
      <point x="728" y="99" type="curve" smooth="yes"/>
      <point x="796" y="166"/>
      <point x="839" y="258"/>
      <point x="839" y="365" type="curve" smooth="yes"/>
      <point x="839" y="461"/>
      <point x="805" y="552"/>
      <point x="742" y="620" type="curve" smooth="yes"/>
      <point x="679.371" y="686.605"/>
      <point x="589.072" y="729.492"/>
      <point x="476.996" y="729.995" type="curve"/>
      <point x="413" y="729.38" type="line" smooth="yes"/>
      <point x="310" y="728"/>
      <point x="213" y="694"/>
      <point x="143.5" y="631.5" type="curve" smooth="yes"/>
      <point x="73.5" y="568.167"/>
      <point x="29" y="475.667"/>
      <point x="29" y="361" type="curve" smooth="yes"/>
      <point x="29" y="253"/>
      <point x="71" y="161.167"/>
      <point x="139" y="96.5" type="curve" smooth="yes"/>
      <point x="205.656" y="33.111"/>
      <point x="297" y="-5"/>
    </contour>
    <contour>
      <point x="153" y="358" type="curve" smooth="yes"/>
      <point x="153" y="444.667"/>
      <point x="171.833" y="533.333"/>
      <point x="212.5" y="600" type="curve" smooth="yes"/>
      <point x="252.374" y="665.367"/>
      <point x="313.878" y="711.185"/>
      <point x="397.956" y="712.947" type="curve"/>
      <point x="396.041" y="10.161" type="line"/>
      <point x="316.508" y="13.042"/>
      <point x="256.511" y="54.296"/>
      <point x="216.5" y="116" type="curve" smooth="yes"/>
      <point x="174.5" y="180"/>
      <point x="153" y="267.333"/>
    </contour>
    <contour>
      <point x="475.005" y="10.182" type="curve"/>
      <point x="475.035" y="71.059"/>
      <point x="475.261" y="313.129"/>
      <point x="476.924" y="712.793" type="curve"/>
      <point x="634.34" y="703.095"/>
      <point x="715" y="527.646"/>
      <point x="715" y="364" type="curve" smooth="yes"/>
      <point x="715" y="280"/>
      <point x="694" y="192"/>
      <point x="653" y="125" type="curve" smooth="yes"/>
      <point x="613.479" y="59.453"/>
      <point x="554.446" y="13.418"/>
    </contour>
  </outline>
</glyph>
<glyph name="wa.base" format="2">
  <advance width="761"/>
  <anchor x="380" y="9" name="haa"/>
  <anchor x="393" y="0" name="haa.acute"/>
  <anchor x="394" y="654" name="hat"/>
  <anchor x="689" y="257" name="he"/>
  <anchor x="371" y="507" name="he.acute"/>
  <anchor x="391" y="-15" name="hee"/>
  <anchor x="379" y="5" name="hi"/>
  <anchor x="389" y="542" name="ho.ring"/>
  <anchor x="516" y="-83" name="hu"/>
  <anchor x="382" y="0" name="hwa"/>
  <anchor x="381" y="482" name="neck"/>
  <outline>
    <contour>
      <point x="172" y="-1" type="curve" smooth="yes"/>
      <point x="251" y="-1"/>
      <point x="300" y="30"/>
      <point x="339" y="97" type="curve"/>
      <point x="340" y="97" type="line"/>
      <point x="346" y="37" type="line"/>
      <point x="415" y="37" type="line"/>
      <point x="421" y="97" type="line"/>
      <point x="422" y="97" type="line"/>
      <point x="461" y="30"/>
      <point x="510" y="-1"/>
      <point x="589" y="-1" type="curve" smooth="yes"/>
      <point x="667" y="-1"/>
      <point x="721" y="90"/>
      <point x="721" y="236" type="curve" smooth="yes"/>
      <point x="721" y="378"/>
      <point x="645" y="483"/>
      <point x="526" y="483" type="curve" smooth="yes"/>
      <point x="486" y="483"/>
      <point x="441" y="474"/>
      <point x="419" y="456" type="curve"/>
      <point x="413" y="483" type="line"/>
      <point x="380" y="482" type="line"/>
      <point x="345" y="483" type="line"/>
      <point x="345" y="476"/>
      <point x="340" y="461"/>
      <point x="340" y="456" type="curve"/>
      <point x="311" y="465"/>
      <point x="275" y="483"/>
      <point x="235" y="483" type="curve" smooth="yes"/>
      <point x="116" y="483"/>
      <point x="40" y="378"/>
      <point x="40" y="236" type="curve" smooth="yes"/>
      <point x="40" y="90"/>
      <point x="94" y="-1"/>
    </contour>
    <contour>
      <point x="231" y="36" type="curve" smooth="yes"/>
      <point x="189" y="36"/>
      <point x="165" y="60"/>
      <point x="151" y="93" type="curve" smooth="yes"/>
      <point x="131" y="140"/>
      <point x="129" y="208"/>
      <point x="129" y="249" type="curve" smooth="yes"/>
      <point x="129" y="284"/>
      <point x="129" y="336"/>
      <point x="138" y="380" type="curve" smooth="yes"/>
      <point x="146" y="426"/>
      <point x="168" y="464"/>
      <point x="220" y="464" type="curve" smooth="yes"/>
      <point x="259" y="464"/>
      <point x="339" y="435"/>
      <point x="339" y="373" type="curve" smooth="yes"/>
      <point x="339" y="153" type="line"/>
      <point x="328" y="96"/>
      <point x="286" y="36"/>
    </contour>
    <contour>
      <point x="530" y="36" type="curve" smooth="yes"/>
      <point x="475" y="36"/>
      <point x="433" y="97"/>
      <point x="422" y="154" type="curve"/>
      <point x="422" y="373" type="line" smooth="yes"/>
      <point x="422" y="435"/>
      <point x="502" y="464"/>
      <point x="541" y="464" type="curve" smooth="yes"/>
      <point x="578" y="464"/>
      <point x="600" y="445"/>
      <point x="613" y="417" type="curve" smooth="yes"/>
      <point x="635" y="369"/>
      <point x="635" y="294"/>
      <point x="635" y="249" type="curve" smooth="yes"/>
      <point x="635" y="200"/>
      <point x="631" y="132"/>
      <point x="609" y="86" type="curve" smooth="yes"/>
      <point x="594" y="56"/>
      <point x="571" y="36"/>
    </contour>
  </outline>
</glyph>
<glyph name="ya.base.cap" format="2">
  <advance width="656"/>
  <anchor x="269" y="2" name="haa.acute"/>
  <anchor x="268" y="497" name="he"/>
  <anchor x="344" y="290" name="hee"/>
  <anchor x="340" y="297" name="hi"/>
  <anchor x="691" y="660" name="hu"/>
  <anchor x="463" y="167" name="ye"/>
  <anchor x="322" y="195" name="yu"/>
  <outline>
    <contour>
      <point x="41" y="0" type="line"/>
      <point x="361" y="0" type="line"/>
      <point x="361" y="10" type="line"/>
      <point x="306.333" y="12.667"/>
      <point x="277" y="34"/>
      <point x="266" y="51" type="curve" smooth="yes"/>
      <point x="253" y="71"/>
      <point x="254" y="101"/>
      <point x="253" y="144" type="curve" smooth="yes"/>
      <point x="253" y="182"/>
      <point x="252" y="263"/>
      <point x="252" y="301" type="curve"/>
      <point x="268" y="301"/>
      <point x="286" y="301"/>
      <point x="306" y="301" type="curve" smooth="yes"/>
      <point x="359.193" y="301"/>
      <point x="444.984" y="308.494"/>
      <point x="494" y="326" type="curve" smooth="yes"/>
      <point x="571.291" y="354.626"/>
      <point x="636" y="417.119"/>
      <point x="636" y="512" type="curve" smooth="yes"/>
      <point x="636" y="592"/>
      <point x="592.667" y="652"/>
      <point x="534" y="684" type="curve" smooth="yes"/>
      <point x="474" y="717.333"/>
      <point x="409" y="722"/>
      <point x="321" y="722" type="curve" smooth="yes"/>
      <point x="309" y="722"/>
      <point x="294" y="722"/>
      <point x="276" y="722" type="curve" smooth="yes"/>
      <point x="258.667" y="722"/>
      <point x="240.167" y="721.833"/>
      <point x="220.5" y="721.5" type="curve" smooth="yes"/>
      <point x="200.833" y="721.167"/>
      <point x="181" y="721"/>
      <point x="161" y="721" type="curve" smooth="yes"/>
      <point x="141" y="721"/>
      <point x="122.5" y="720.833"/>
      <point x="105.5" y="720.5" type="curve" smooth="yes"/>
      <point x="88.5" y="720.167"/>
      <point x="73.667" y="720"/>
      <point x="61" y="720" type="curve" smooth="yes"/>
      <point x="49" y="720"/>
      <point x="41" y="720"/>
      <point x="37" y="720" type="curve"/>
      <point x="37" y="710" type="line"/>
      <point x="73" y="704.667"/>
      <point x="106" y="700.333"/>
      <point x="126" y="679" type="curve" smooth="yes"/>
      <point x="142.103" y="662.897"/>
      <point x="143" y="596.302"/>
      <point x="143" y="558" type="curve" smooth="yes"/>
      <point x="143" y="317"/>
      <point x="143" y="202"/>
      <point x="143" y="156" type="curve" smooth="yes"/>
      <point x="143" y="121"/>
      <point x="137.405" y="60.886"/>
      <point x="125" y="46" type="curve" smooth="yes"/>
      <point x="107.667" y="24.667"/>
      <point x="74.333" y="15.333"/>
      <point x="41" y="10" type="curve"/>
    </contour>
    <contour>
      <point x="252" y="315" type="curve"/>
      <point x="252" y="320.333"/>
      <point x="252" y="335"/>
      <point x="252" y="359" type="curve" smooth="yes"/>
      <point x="252" y="383"/>
      <point x="252" y="411"/>
      <point x="252" y="443" type="curve" smooth="yes"/>
      <point x="252" y="507"/>
      <point x="253" y="571"/>
      <point x="254" y="618" type="curve" smooth="yes"/>
      <point x="255" y="649"/>
      <point x="255" y="657"/>
      <point x="257" y="669" type="curve" smooth="yes"/>
      <point x="258" y="677"/>
      <point x="260" y="687"/>
      <point x="263" y="703" type="curve"/>
      <point x="282" y="706"/>
      <point x="297" y="707"/>
      <point x="314" y="707" type="curve" smooth="yes"/>
      <point x="353" y="707"/>
      <point x="389" y="702.667"/>
      <point x="421" y="688" type="curve" smooth="yes"/>
      <point x="485" y="657.333"/>
      <point x="528" y="594.333"/>
      <point x="528" y="517" type="curve" smooth="yes"/>
      <point x="528" y="433"/>
      <point x="481.333" y="360.333"/>
      <point x="396" y="331" type="curve" smooth="yes"/>
      <point x="354.667" y="316.333"/>
      <point x="306.667" y="315"/>
    </contour>
  </outline>
</glyph>
<glyph name="ya.base" format="2">
  <advance width="573"/>
  <anchor x="94" y="2" name="haa.acute"/>
  <anchor x="136" y="257" name="he"/>
  <anchor x="310" y="35" name="hee"/>
  <anchor x="257" y="67" name="hi"/>
  <anchor x="607" y="250" name="hu"/>
  <anchor x="97" y="-179" name="yaa"/>
  <anchor x="338" y="-73" name="ye"/>
  <anchor x="257" y="-75" name="yu"/>
  <outline>
    <contour>
      <point x="97" y="-22" type="curve" smooth="yes"/>
      <point x="112" y="-33"/>
      <point x="122" y="-48"/>
      <point x="122" y="-83" type="curve" smooth="yes"/>
      <point x="122" y="-185" type="line" smooth="yes"/>
      <point x="122" y="-206"/>
      <point x="79" y="-217"/>
      <point x="50" y="-219" type="curve"/>
      <point x="50" y="-230" type="line"/>
      <point x="290" y="-230" type="line"/>
      <point x="290" y="-219" type="line"/>
      <point x="262" y="-216"/>
      <point x="211" y="-213"/>
      <point x="206" y="-192" type="curve"/>
      <point x="206" y="-155" type="line"/>
      <point x="206" y="-101" type="line" smooth="yes"/>
      <point x="206" y="-80"/>
      <point x="205" y="-59"/>
      <point x="205" y="-37" type="curve" smooth="yes"/>
      <point x="205" y="-17"/>
      <point x="184" y="-2"/>
      <point x="154.574" y="-2" type="curve"/>
      <point x="152" y="135" type="line"/>
      <point x="195" y="104"/>
      <point x="246" y="67"/>
      <point x="328" y="70" type="curve" smooth="yes"/>
      <point x="447" y="74"/>
      <point x="520" y="134"/>
      <point x="518" y="261" type="curve" smooth="yes"/>
      <point x="516" y="403"/>
      <point x="425" y="483"/>
      <point x="288" y="483" type="curve" smooth="yes"/>
      <point x="211" y="483"/>
      <point x="148" y="437"/>
      <point x="113" y="401" type="curve" smooth="yes"/>
      <point x="72" y="358" type="line"/>
      <point x="72" y="39" type="line" smooth="yes"/>
      <point x="72" y="4"/>
      <point x="85" y="-13"/>
    </contour>
    <contour>
      <point x="154" y="234" type="curve" smooth="yes"/>
      <point x="154" y="218" type="line"/>
      <point x="154" y="252" type="line" smooth="yes"/>
      <point x="154" y="264"/>
      <point x="154" y="276"/>
      <point x="155" y="287" type="curve" smooth="yes"/>
      <point x="156" y="314"/>
      <point x="152" y="341"/>
      <point x="159" y="365" type="curve" smooth="yes"/>
      <point x="176" y="424"/>
      <point x="222" y="456"/>
      <point x="291" y="456" type="curve" smooth="yes"/>
      <point x="379" y="456"/>
      <point x="429" y="372"/>
      <point x="427" y="252" type="curve" smooth="yes"/>
      <point x="425" y="150"/>
      <point x="378" y="130"/>
      <point x="273" y="130" type="curve" smooth="yes"/>
      <point x="220" y="130"/>
      <point x="155" y="163"/>
      <point x="155" y="190" type="curve" smooth="yes"/>
      <point x="154" y="200"/>
      <point x="154" y="248"/>
    </contour>
  </outline>
</glyph>
<glyph name="za.base.cap" format="2">
  <advance width="900"/>
  <anchor x="735" y="1" name="haa"/>
  <anchor x="183" y="735" name="he.acute"/>
  <anchor x="763" y="-30" name="hee"/>
  <anchor x="757" y="2" name="hi"/>
  <anchor x="180" y="1" name="ho"/>
  <anchor x="861" y="472" name="hu"/>
  <anchor x="761" y="3" name="hwa"/>
  <anchor x="451" y="708" name="zha"/>
  <outline>
    <contour>
      <point x="44" y="0" type="line"/>
      <point x="339" y="0" type="line"/>
      <point x="339" y="10" type="line"/>
      <point x="311" y="13"/>
      <point x="278" y="24"/>
      <point x="262" y="47" type="curve" smooth="yes"/>
      <point x="251" y="62"/>
      <point x="252" y="102"/>
      <point x="252" y="141" type="curve" smooth="yes"/>
      <point x="252" y="356" type="line"/>
      <point x="647" y="356" type="line"/>
      <point x="647" y="348"/>
      <point x="647" y="154"/>
      <point x="647" y="130" type="curve" smooth="yes"/>
      <point x="647" y="104"/>
      <point x="645" y="57"/>
      <point x="638" y="47" type="curve"/>
      <point x="627" y="30"/>
      <point x="592" y="14"/>
      <point x="543" y="10" type="curve"/>
      <point x="543" y="0" type="line"/>
      <point x="850" y="0" type="line"/>
      <point x="850" y="10" type="line"/>
      <point x="815" y="14"/>
      <point x="784" y="22"/>
      <point x="767" y="49" type="curve" smooth="yes"/>
      <point x="759" y="61"/>
      <point x="758" y="97"/>
      <point x="757" y="136" type="curve" smooth="yes"/>
      <point x="757" y="587" type="line" smooth="yes"/>
      <point x="757" y="612"/>
      <point x="760" y="653"/>
      <point x="767" y="666" type="curve" smooth="yes"/>
      <point x="782" y="693"/>
      <point x="816" y="706"/>
      <point x="848" y="710" type="curve"/>
      <point x="848" y="720" type="line"/>
      <point x="547" y="720" type="line"/>
      <point x="547" y="710" type="line"/>
      <point x="578" y="709"/>
      <point x="610" y="705"/>
      <point x="634" y="669" type="curve"/>
      <point x="645" y="652"/>
      <point x="645" y="621"/>
      <point x="647" y="596" type="curve" smooth="yes"/>
      <point x="647" y="570"/>
      <point x="647" y="397"/>
      <point x="647" y="376" type="curve"/>
      <point x="252" y="376" type="line"/>
      <point x="252" y="383"/>
      <point x="252" y="583"/>
      <point x="252" y="630" type="curve" smooth="yes"/>
      <point x="252" y="688"/>
      <point x="300" y="704"/>
      <point x="345" y="710" type="curve"/>
      <point x="345" y="720" type="line"/>
      <point x="47" y="720" type="line"/>
      <point x="47" y="710" type="line"/>
      <point x="82" y="706"/>
      <point x="109" y="698"/>
      <point x="128" y="675" type="curve" smooth="yes"/>
      <point x="139" y="662"/>
      <point x="143" y="622"/>
      <point x="143" y="594" type="curve" smooth="yes"/>
      <point x="143" y="551"/>
      <point x="143" y="217"/>
      <point x="143" y="156" type="curve" smooth="yes"/>
      <point x="143" y="121"/>
      <point x="137" y="60"/>
      <point x="127" y="47" type="curve" smooth="yes"/>
      <point x="111" y="28"/>
      <point x="77" y="15"/>
      <point x="44" y="10" type="curve"/>
    </contour>
  </outline>
</glyph>
